<?xml version="1.0" encoding="windows-1252"?>
<!-- Generator: Adobe Illustrator 16.0.4, SVG Export Plug-In . SVG Version: 6.00 Build 0)  -->
<!DOCTYPE svg PUBLIC "-//W3C//DTD SVG 1.1//EN" "http://www.w3.org/Graphics/SVG/1.1/DTD/svg11.dtd">
<svg version="1.1" xmlns="http://www.w3.org/2000/svg" xmlns:xlink="http://www.w3.org/1999/xlink" x="0px" y="0px" viewBox="0 0 1920 470" enable-background="new 0 0 1920 470" xml:space="preserve">
<g id="Layer_1">
	<g>
		<polygon fill="none" points="1807.474,449.064 1905.104,459.471 1800.737,406.526   "/>
		<polygon fill="none" points="1132.412,38.68 857.211,128.113 1001.912,233.246   "/>
		<polygon fill="none" points="302.022,315.547 194.201,470 300.475,470 446.623,359.533   "/>
		<polygon fill="none" points="305.45,470 405.193,470 446.757,363.192   "/>
		<polygon fill="none" points="406.266,470 485.512,470 448.219,362.191   "/>
		<polygon fill="none" points="853.036,126.315 808.161,93.711 690.655,179.084   "/>
		<polygon fill="none" points="683.729,184.49 682.998,184.728 610.785,408.422 813.222,470 843.115,470 971.803,278.136   "/>
		<polygon fill="none" points="450.926,360.842 488.686,470 589.856,470 609.521,409.083   "/>
		<polygon fill="none" points="590.907,470 809.784,470 610.478,409.375   "/>
		<polygon fill="none" points="1133.749,329.034 1133.749,38.481 1002.721,233.834   "/>
		<polygon fill="none" points="973.37,277.594 1132.4,329.29 1002.163,234.666   "/>
		<polygon fill="none" points="229.308,0 90.208,0 204.932,34.923   "/>
		<polygon fill="none" points="60.941,241.438 8.15,0 0,0 0,470 64.089,470 59.9,241.457   "/>
		<polygon fill="none" points="730.576,37.341 684.595,179.779 805.609,91.857   "/>
		<polygon fill="none" points="355.081,83.767 449.675,357.226 680.43,182.808   "/>
		<polygon fill="none" points="856.036,128.495 685.346,183.964 972.382,277.272 1001.354,234.078   "/>
		<polygon fill="none" points="62.104,239.548 203.126,37.51 79.907,0 9.174,0 61.611,239.819   "/>
		<polygon fill="none" points="348.88,81.879 297.628,66.277 298.445,109.608   "/>
		<polygon fill="none" points="1561.566,425.87 1568.557,470 1807.752,470 1804.871,451.804   "/>
		<polygon fill="none" points="1807.96,452.134 1810.79,470 1899.979,470 1910.349,463.048   "/>
		<polygon fill="none" points="340.196,49.913 300.059,63.881 350.321,79.182   "/>
		<polygon fill="none" points="298.509,112.997 302.309,314.59 446.975,358.594 351.87,83.659   "/>
		<polygon fill="none" points="63.799,242.039 299.291,313.672 295.539,114.629   "/>
		<polygon fill="none" points="294.618,65.775 150.819,115.818 150.49,114.874 293.629,65.06 204.132,37.816 64.083,238.459    295.476,111.241   "/>
		<polygon fill="none" points="868.598,470 1146.475,470 1134.209,332.966   "/>
		<polygon fill="none" points="972.791,278.457 844.319,470 862.055,470 1132.616,330.412   "/>
		<polygon fill="none" points="1149.486,470 1272.82,470 1137.215,332.898   "/>
		<polygon fill="none" points="609.828,408.131 681.65,185.646 451.156,359.866   "/>
		<polygon fill="none" points="1413.525,210.094 1294.541,262.297 1327.392,470 1337.221,470 1535.334,271.887   "/>
		<polygon fill="none" points="1536.245,272.391 1338.635,470 1467.768,470 1560.094,422.961   "/>
		<polygon fill="none" points="1137.109,331.369 1274.227,470 1326.379,470 1293.594,262.713   "/>
		<polygon fill="none" points="1474.376,470 1567.545,470 1560.587,426.076   "/>
		<polygon fill="none" points="62.925,242.818 67.089,470 190.542,470 299.004,314.63   "/>
		<polygon fill="none" points="1509.103,101.035 1277.63,137.79 1413.619,206.777 1518.559,160.735   "/>
		<polygon fill="none" points="1213.236,92.283 1274.298,136.646 1373.495,0 1251.437,0 1242.244,2.987   "/>
		<polygon fill="none" points="1508.946,100.047 1493.1,0 1377.203,0 1277.946,136.728   "/>
		<polygon fill="none" points="1275.265,140.421 1294.057,259.234 1410.062,208.337 1275.512,140.08   "/>
		<polygon fill="none" points="1139.92,326.86 1293.109,259.649 1274.433,141.566   "/>
		<polygon fill="none" points="1241.729,0 1136.749,0 1136.749,34.116   "/>
		<polygon fill="none" points="1133.749,0 1086.218,0 1133.749,34.533   "/>
		<polygon fill="none" points="1417.082,208.534 1535.658,268.688 1519.044,163.798   "/>
		<polygon fill="none" points="1768.321,201.842 1800.158,402.868 1910.092,458.638 1797.929,192.805   "/>
		<path fill="none" d="M1836.21,0l67.03,160.661l-102.428,31.264l113.63,269.309c0,0.001,0,0.002,0.001,0.003l0.003,0.009l-0.001,0    c0.131,0.311,0.16,0.665,0.058,1.008c-0.206,0.694-0.872,1.138-1.598,1.066l-1.007-0.107L1901.774,470H1920V0H1836.21z"/>
		<polygon fill="none" points="1537.338,272.904 1561.081,422.801 1804.385,448.735 1797.435,404.851   "/>
		<path fill="none" d="M1740.788,63.234l3.439-1.509c0.05-0.023,0.119-0.048,0.191-0.069c0.202-0.058,0.405-0.062,0.603-0.035    L1776.411,0h-282.299l15.822,99.891L1740.788,63.234z"/>
		<polygon fill="none" points="1740.651,66.57 1519.99,163.383 1536.759,269.246 1537.565,269.655   "/>
		<path fill="none" d="M1746.211,62.516l54.211,128.483l101.471-30.972L1835.127,0h-57.593l-31.618,62.068    C1746.037,62.195,1746.14,62.345,1746.211,62.516z"/>
		<polygon fill="none" points="353.869,80.262 683.297,180.544 729.725,36.723 679.182,0 483.62,0 343.029,48.927   "/>
		<polygon fill="none" points="741.58,0 680.884,0 730.048,35.721   "/>
		<polygon fill="none" points="1212.912,93.283 1137.701,324.811 1273.711,137.455   "/>
		<polygon fill="none" points="1737.171,64.821 1510.09,100.878 1519.505,160.32   "/>
		<polygon fill="none" points="1241.068,3.37 1137.28,37.098 1212.386,91.665   "/>
		<polygon fill="none" points="1539.504,270.639 1765.266,201.729 1743.652,65.253 1743.17,65.465 1538.504,270.131   "/>
		<polygon fill="none" points="298.436,63.387 339.869,48.968 322.931,0 296.379,0 297.569,63.124   "/>
		<polygon fill="none" points="294.551,62.205 293.378,0 230.527,0 205.938,35.229   "/>
		<polygon fill="none" points="1797.538,191.879 1748.239,75.038 1768.164,200.845   "/>
		<polygon fill="none" points="1136.749,37.948 1136.749,324.506 1212.062,92.665   "/>
		<polygon fill="none" points="806.459,91.239 932.038,0 742.631,0 730.899,36.34   "/>
		<polygon fill="none" points="480.578,0 326.104,0 342.702,47.982   "/>
		<polygon fill="none" points="854.211,125.933 1133.104,35.3 1084.517,0 937.141,0 809.011,93.093   "/>
		<polygon fill="none" points="1796.855,401.193 1765.424,202.727 1540.791,271.292   "/>
		<path fill="#FFFFFF" d="M1912.907,463.32c0.726,0.072,1.392-0.372,1.598-1.066c0.102-0.343,0.073-0.697-0.058-1.008l0.001,0    l-0.003-0.009c-0.001-0.001-0.001-0.002-0.001-0.003l-113.63-269.309l102.428-31.264L1836.21,0h-1.083l66.766,160.027    l-101.471,30.972l-54.211-128.483c-0.072-0.171-0.174-0.32-0.295-0.448L1777.534,0h-1.123l-31.39,61.621    c-0.198-0.026-0.401-0.022-0.603,0.035c-0.072,0.021-0.141,0.046-0.191,0.069l-3.439,1.509l-230.854,36.657L1494.112,0h-1.012    l15.847,100.047l-231,36.68L1377.203,0h-3.708l-99.197,136.646l-61.062-44.363l29.008-89.296L1251.437,0h-9.708l-104.98,34.116V0    h-3v34.533L1086.218,0h-1.701l48.587,35.3l-278.894,90.633l-45.2-32.84L937.141,0h-5.103L806.459,91.239l-75.56-54.899L742.631,0    h-1.051l-11.532,35.721L680.884,0h-1.702l50.543,36.723l-46.428,143.821L353.869,80.262l-10.839-31.334L483.62,0h-3.042    L342.702,47.982L326.104,0h-3.174l16.938,48.968l-41.434,14.419l-0.867-0.264L296.379,0h-3.001l1.173,62.205l-88.613-26.976    L230.527,0h-1.219l-24.376,34.923L90.208,0H79.907l123.219,37.51L62.104,239.548l-0.493,0.271L9.174,0H8.15l52.791,241.438    l-1.041,0.019L64.089,470h3l-4.164-227.182l236.079,71.812L190.542,470h3.659l107.821-154.453l144.601,43.985L300.475,470h4.976    l141.307-106.808L405.193,470h1.073l41.953-107.809L485.512,470h3.174l-37.76-109.158l158.595,48.242L589.856,470h1.051    l19.571-60.625L809.784,470h3.438l-202.437-61.578l72.212-223.695l0.731-0.237l288.075,93.646L843.115,470h1.204l128.472-191.543    l159.825,51.955L862.055,470h6.543l265.611-137.034L1146.475,470h3.012l-12.271-137.102L1272.82,470h1.407l-137.117-138.631    l156.484-68.656L1326.379,470h1.013l-32.851-207.703l118.984-52.204l121.809,61.793L1337.221,470h1.415l197.609-197.609    l23.849,150.57L1467.768,470h6.608l86.211-43.924l6.958,43.924h1.012l-6.99-44.13l243.304,25.935l2.881,18.196h3.038l-2.83-17.866    l102.389,10.914L1899.979,470h1.796l10.125-6.787L1912.907,463.32z M340.196,49.913l10.125,29.269l-50.262-15.3L340.196,49.913z     M348.88,81.879l-50.435,27.729l-0.817-43.331L348.88,81.879z M204.132,37.816l89.498,27.244L150.49,114.874l0.329,0.944    l143.799-50.043l0.857,45.466L64.083,238.459L204.132,37.816z M63.799,242.039l231.74-127.41l3.752,199.043L63.799,242.039z     M302.309,314.59l-3.8-201.593l53.361-29.337l95.105,274.935L302.309,314.59z M449.675,357.226L355.081,83.767l325.349,99.041    L449.675,357.226z M609.828,408.131l-158.672-48.265L681.65,185.646L609.828,408.131z M1132.412,38.68l-130.5,194.566    L857.211,128.113L1132.412,38.68z M808.161,93.711l44.875,32.604l-162.38,52.77L808.161,93.711z M730.576,37.341l75.033,54.516    l-121.014,87.922L730.576,37.341z M972.382,277.272l-287.036-93.308l170.689-55.469l145.319,105.583L972.382,277.272z     M973.37,277.594l28.793-42.928L1132.4,329.29L973.37,277.594z M1133.749,329.034l-131.028-95.2l131.028-195.353V329.034z     M1797.538,191.879l-29.375,8.966l-19.924-125.807L1797.538,191.879z M1796.855,401.193l-256.064-129.901l224.633-68.565    L1796.855,401.193z M1743.17,65.465l0.482-0.211l21.614,136.476l-225.762,68.909l-1-0.507L1743.17,65.465z M1737.171,64.821    l-217.666,95.499l-9.415-59.441L1737.171,64.821z M1241.068,3.37l-28.683,88.295l-75.106-54.567L1241.068,3.37z M1136.749,324.506    V37.948l75.313,54.717L1136.749,324.506z M1212.912,93.283l60.799,44.172l-136.01,187.355L1212.912,93.283z M1139.92,326.86    l134.513-185.294l18.676,118.083L1139.92,326.86z M1294.057,259.234l-18.792-118.813l0.248-0.341l134.55,68.257L1294.057,259.234z     M1277.63,137.79l231.473-36.755l9.456,59.7l-104.94,46.042L1277.63,137.79z M1417.082,208.534l101.962-44.735l16.614,104.889    L1417.082,208.534z M1519.99,163.383l220.661-96.813l-203.085,203.085l-0.807-0.409L1519.99,163.383z M1561.081,422.801    l-23.743-149.896l260.097,131.947l6.95,43.884L1561.081,422.801z M1807.474,449.064l-6.737-42.538l104.366,52.945    L1807.474,449.064z M1800.158,402.868l-31.837-201.026l29.607-9.037l112.163,265.833L1800.158,402.868z"/>
	</g>
</g>
<g id="Ebene_4">
</g>
<g id="Layer_1_Kopie" display="none">
</g>
<g id="Layer_2">
</g>
<g id="Ebene_5">
</g>
</svg>