<?xml version="1.0" standalone="no"?>
<!DOCTYPE svg PUBLIC "-//W3C//DTD SVG 1.1//EN" "http://www.w3.org/Graphics/SVG/1.1/DTD/svg11.dtd" >
<svg xmlns="http://www.w3.org/2000/svg">
<metadata>Generated by IcoMoon</metadata>
<defs>
<font id="seedbloom" horiz-adv-x="1024">
<font-face units-per-em="1024" ascent="960" descent="-64" />
<missing-glyph horiz-adv-x="1024" />
<glyph unicode="&#x20;" horiz-adv-x="512" d="" />
<glyph unicode="&#xe900;" glyph-name="organisation_am" d="M288 288h-96v64h288v-64h-96v-256h256v256h-96v64h288v-64h-96v-256h256v256h-96v128h-352v66.88c90.752 15.264 160 94.016 160 189.12 0 106.016-85.984 192-192 192s-192-85.984-192-192c0-95.104 69.248-173.856 160-189.12v-66.88h-352v-128h-96v-256h256v256zM928 96h-128v128h128v-128zM576 96h-128v128h128v-128zM512 800c70.592 0 128-57.408 128-128s-57.408-128-128-128-128 57.408-128 128 57.408 128 128 128zM224 96h-128v128h128v-128z" />
<glyph unicode="&#xe901;" glyph-name="impact_am" d="M511.808 960c-282.56 0-511.808-229.248-511.808-512s229.248-512 511.808-512c282.944 0 512.192 229.248 512.192 512s-229.248 512-512.192 512zM511.808 0c-246.912 0-447.808 200.96-447.808 448s200.896 448 447.808 448c247.136 0 448.192-200.96 448.192-448s-201.056-448-448.192-448zM511.904 640.096c-105.92 0-191.904-86.080-191.904-192.096s85.984-192.096 191.904-192.096c106.112 0 192.096 86.080 192.096 192.096s-85.984 192.096-192.096 192.096zM511.904 319.904c-70.528 0-127.904 57.44-127.904 128.096s57.376 128.096 127.904 128.096c70.624 0 128.096-57.44 128.096-128.096s-57.472-128.096-128.096-128.096zM511.904 800.096c-194.368 0-351.904-157.632-351.904-352.096s157.536-352.096 351.904-352.096c194.56 0 352.096 157.632 352.096 352.096s-157.536 352.096-352.096 352.096zM511.904 159.904c-158.752 0-287.904 129.248-287.904 288.096s129.152 288.096 287.904 288.096c158.848 0 288.096-129.248 288.096-288.096s-129.248-288.096-288.096-288.096z" />
<glyph unicode="&#xe902;" glyph-name="financial_am" d="M960 762.080c-10.048 3.584-20.736 5.92-32 5.92h-36.128l-26.144 62.56c-20.384 48.704-76.896 71.904-125.6 51.52l-272.736-114.080h-371.392c-11.264 0-21.952-2.336-32-5.92-37.12-13.312-64-48.544-64-90.080v-576c0-52.8 43.2-96 96-96h832c52.8 0 96 43.2 96 96v576c0 41.536-26.88 76.768-64 90.080zM928 704c17.344 0 32-14.656 32-32 0-11.68-6.912-21.696-16.544-27.296l-24.8 59.296h9.344zM764.8 823.008c16 6.688 35.2-1.184 41.888-17.184l15.808-37.824 53.568-128h-548.768l437.504 183.008zM96 704h218.4l-152.992-64h-65.408c-17.344 0-32 14.656-32 32s14.656 32 32 32zM928 64h-832c-10.432 0-19.424 5.632-25.312 13.632-2.944 4-4.864 8.576-5.696 13.632-0.288 1.6-0.992 3.040-0.992 4.736v485.92c10.048-3.584 20.736-5.92 32-5.92h832c11.264 0 21.952 2.336 32 5.92v-69.92h-96c-70.56 0-128-57.408-128-128v-64c0-70.56 57.44-128 128-128h96v-96c0-17.344-14.656-32-32-32zM960 448v-192h-96c-35.328 0-64 28.672-64 64v64c0 35.296 28.672 64 64 64h96zM832 352c0-35.328 28.672-64 64-64v128c-35.328 0-64-28.672-64-64z" />
<glyph unicode="&#xe903;" glyph-name="mission_am" d="M544 838.304v121.696h-64v-121.696c-190.528-15.52-342.72-167.712-358.208-358.304h-121.792v-64h121.792c15.52-190.528 167.68-342.688 358.208-358.208v-121.792h64v121.792c190.592 15.488 342.784 167.68 358.304 358.208h121.696v64h-121.696c-15.52 190.592-167.712 342.784-358.304 358.304zM838.304 480h-294.304v294.304c155.328-15.104 279.2-138.976 294.304-294.304zM480 774.304v-294.304h-294.208c15.104 155.328 138.912 279.168 294.208 294.304zM185.792 416h294.208v-294.208c-155.296 15.104-279.104 138.912-294.208 294.208zM544 121.792v294.208h294.304c-15.136-155.296-138.976-279.104-294.304-294.208z" />
<glyph unicode="&#xe904;" glyph-name="about_am" d="M928 832h-832c-52.8 0-96-43.2-96-96v-576c0-52.8 43.2-96 96-96h832c52.8 0 96 43.2 96 96v576c0 52.8-43.2 96-96 96zM960 160c0-17.344-14.656-32-32-32h-832c-17.344 0-32 14.656-32 32v576c0 17.344 14.656 32 32 32h320c17.344 0 32-14.656 32-32 0-88.224 71.776-160 160-160h320c17.344 0 32-14.656 32-32v-384zM928 640h-320c-52.8 0-96 43.2-96 96 0 11.264-2.304 21.952-5.952 32h421.952c17.344 0 32-14.656 32-32v-101.92c-10.048 3.584-20.736 5.92-32 5.92zM128 512h768v-64h-768v64zM128 384h768v-64h-768v64zM128 256h768v-64h-768v64z" />
<glyph unicode="&#xe905;" glyph-name="share" d="M688.032 580.992c50.176 0 91.008 40.832 91.008 91.008s-40.832 91.008-91.008 91.008c-50.208 0-91.072-40.832-91.072-91.008 0-6.432 0.704-12.672 1.984-18.72l-208.576-132.704c-15.2 11.424-33.888 18.464-54.336 18.464-50.208 0-91.072-40.832-91.072-91.008s40.832-91.008 91.072-91.008c20.448 0 39.136 7.040 54.336 18.464l208.576-132.704c-1.28-6.048-1.984-12.32-1.984-18.72 0-50.176 40.832-91.008 91.072-91.008 50.176 0 91.008 40.832 91.008 91.008s-40.832 91.008-91.008 91.008c-20.48 0-39.168-7.040-54.4-18.464l-208.576 132.736c1.28 6.048 1.984 12.32 1.984 18.72s-0.704 12.672-1.984 18.72l208.576 132.736c15.232-11.488 33.92-18.528 54.4-18.528z" />
<glyph unicode="&#xe906;" glyph-name="linkedin" d="M245.376 782.24c-51.616 0-85.376-33.632-85.376-77.888 0-43.328 32.8-77.952 83.424-77.952h1.024c52.576 0 85.344 34.624 85.344 77.952-1.024 44.256-32.768 77.888-84.416 77.888zM554.208 113.76v251.936c0 13.44 1.024 26.912 5.024 36.544 10.88 26.976 35.68 54.88 77.408 54.88 54.592 0 76.448-41.376 76.448-102.016v-241.312h150.912v258.624c0 138.624-74.496 203.040-173.792 203.040-80.128 0-115.936-43.84-135.968-74.56v63.904h-150.88c1.984-42.304 0-451.072 0-451.072h150.848zM168.928 564.768h150.944v-451.040h-150.944v451.040z" />
<glyph unicode="&#xe907;" glyph-name="github" d="M511.968 822.528c-212.032 0-383.968-171.936-383.968-384.032 0-169.664 110.016-313.6 262.624-364.352 19.2-3.52 26.208 8.32 26.208 18.496 0 9.152-0.32 33.28-0.512 65.344-106.816-23.232-129.376 51.488-129.376 51.488-17.44 44.352-42.656 56.128-42.656 56.128-34.816 23.872 2.656 23.36 2.656 23.36 38.528-2.72 58.816-39.552 58.816-39.552 34.272-58.688 89.888-41.728 111.744-31.904 3.488 24.8 13.408 41.728 24.384 51.328-85.28 9.664-174.912 42.624-174.912 189.76 0 41.984 14.976 76.192 39.52 103.072-3.968 9.728-17.152 48.736 3.744 101.632 0 0 32.256 10.304 105.6-39.328 30.656 8.448 63.488 12.768 96.16 12.896 32.64-0.128 65.44-4.448 96.096-12.896 73.344 49.664 105.504 39.328 105.504 39.328 20.96-52.864 7.776-91.904 3.84-101.632 24.544-26.88 39.456-61.088 39.456-103.072 0-147.52-89.792-180-175.328-189.504 13.76-11.872 26.048-35.264 26.048-71.104 0-51.328-0.448-92.768-0.448-105.344 0-10.24 6.912-22.176 26.4-18.432 152.512 50.88 262.432 194.688 262.432 364.288 0 212.096-171.936 384.032-384.032 384.032z" />
<glyph unicode="&#xe908;" glyph-name="keybase" d="M776.32 575.008c-20.832 84.256-49.472 126.88-85.12 126.88-6.624 0-19.424-0.064-37.024-18.88-4.832 26.976-12.8 51.616-25.888 64.832-11.232 11.36-23.456 13.76-31.776 13.76-27.296 0-48.992-14.336-64.768-30.336-12.512 16.48-29.12 30.336-49.632 30.336-11.264 0-22.112-4.704-30.464-13.312-12.416-12.672-19.744-36.768-24.032-63.904-16.832 17.312-28.8 17.504-35.072 17.504-42.784 0-72.832-86.080-84.96-128.448-79.072-38.976-119.040-67.616-135.616-81.024-44.64-2.144-107.968-13.344-107.968-59.36 0-66.656 54.176-103.744 104.192-116.672 35.584-33.376 98.784-50.368 134.72-57.696v-4.768c0-49.664 67.456-109.376 176.48-119.36l121.536-0.096c0.192 0 0.416-0.032 0.64-0.032 0.192 0 0.384 0.032 0.608 0.032l104.96-0.032 8.288 12.384c3.008 3.552 14.56 15.456 25.728 26.976 159.52 165.056 218.848 243.392 218.848 289.152 0 17.568 0 43.744-183.68 112.064zM153.6 386.752c-13.344 8-25.984 19.84-29.152 37.6 6.528 2.4 17.184 4.672 29.152 6.272v-43.872zM468.48 557.44c1.984 1.28 3.776 2.72 5.376 4.384 0.288 0.32 0.48 0.64 0.768 0.96 1.248 1.44 2.368 2.976 3.328 4.672 0.352 0.576 0.672 1.184 0.928 1.824 0.832 1.6 1.44 3.264 1.984 5.024 0.128 0.544 0.352 1.024 0.448 1.568 0.544 2.24 0.768 4.576 0.768 6.976 0 0.064 0.032 0.224 0.032 0.352-0.96 39.456 1.888 80.672 6.656 104.832 4.32-7.104 8.704-15.712 11.968-23.712 4.352-11.040 14.848-18.368 26.72-18.816 11.68-0.416 22.848 6.272 28 16.96 5.024 10.464 19.072 31.392 33.28 37.632 7.424-19.136 13.312-70.272 12.864-117.376 0-0.096 0-0.192 0-0.192 0-2.208 0.224-4.352 0.672-6.432 0.096-0.448 0.256-0.8 0.416-1.28 0.416-1.568 0.928-3.168 1.632-4.672 0.32-0.736 0.672-1.344 1.024-1.952 0.672-1.248 1.408-2.4 2.24-3.552 0.448-0.64 0.992-1.216 1.504-1.824 0.896-0.992 1.856-1.952 2.88-2.848 0.384-0.32 0.672-0.736 1.056-1.056 0.576-0.448 1.088-0.864 1.664-1.344-14.080-2.624-36.8-5.024-72.864-5.024-37.088 0-59.872 2.176-73.76 4.544 0.16 0.128 0.256 0.224 0.416 0.352zM345.792 525.632l12.448 6.016 3.456 13.376c7.168 27.36 21.6 64.224 32.672 85.376 6.112-9.568 13.312-22.88 20.192-37.184-11.584-9.888-22.016-23.488-22.016-40.736 0-59.744 97.12-59.744 149.312-59.744 69.536 0 149.344 6.816 149.344 59.616 0.032 9.376-2.176 19.2-23.392 38.496 8 17.024 16.704 33.088 23.616 43.2 9.984-17.6 22.72-53.824 30.368-88.032l3.584-16 15.36-5.568c3.36-1.28 6.784-2.496 10.208-3.776v-57.792h-119.488l-326.688 42.048c12.384 6.528 25.888 13.376 41.024 20.704zM585.184 431.136l12.96-1.568c0 0 6.432-24.192-15.008-32.192 4.672 3.232 8.224 8.832 8.224 17.6 0 7.424-2.56 12.736-6.176 16.16zM570.496 394.912c-5.216-0.256-11.392 0.096-18.656 1.28-52.064 8.48-52.448 45.376-52.448 45.376l67.008-8.128c-5.312-3.008-9.44-8.992-9.44-18.464-0.032-11.84 6.368-18.304 13.536-20.064zM371.552 462.112l16.096-2.016c0 0 3.296-19.552-12.96-27.904 2.592 3.072 4.288 7.552 4.288 13.6 0.032 8.256-3.232 13.504-7.424 16.32zM300.992 470.688l59.040-7.168c-5.376-2.144-9.792-7.936-9.792-17.696 0-9.184 3.936-14.88 8.864-17.312-4.416-0.16-9.44 0.096-15.328 1.024-45.664 7.488-42.784 41.152-42.784 41.152zM576.48 194.176h-92.96c-74.688 7.2-112.608 41.056-119.392 55.84 13.472-1.152 26.592-1.728 39.104-1.728 107.936 0 178.944 37.056 182.528 38.976l-28.128 52.672c-0.832-0.416-89.728-46.752-218.176-26.976l-2.592 0.384c-35.040 4.8-95.68 20.512-123.52 43.232v92.288c6.4 4.896 16.32 12.064 30.72 21.248 0-1.44 0.032-3.008 0.032-4.352 0-17.024-2.56-73.824 64.608-81.312 79.68-8.768 113.696 63.552 113.696 63.552l17.344-5.184c0 0 11.584-99.36 102.080-99.36 89.6 0 89.6 89.6 89.6 89.6h115.552c-11.904-50.176-51.712-90.72-90.752-129.984-35.008-35.232-68.096-69.024-79.744-108.896zM698.208 215.328c-9.376-9.696-15.808-16.416-20.384-21.184h-36.64c12.128 21.056 34.208 43.456 57.408 66.752 49.92 50.272 112.032 112.736 112.032 202.016v34.144c38.72-16.128 72.928-32.288 87.648-42.368-9.152-25.472-54.208-88.448-200.064-239.36z" />
<glyph unicode="&#xe909;" glyph-name="twitter" d="M381.376 161.952c140.32 0 243.968 63.968 316.512 147.424 94.016 108.16 94.304 276.032 94.048 282.208 28.192 20.384 52.672 45.824 72.064 74.752-25.952-11.488-53.824-19.264-83.008-22.688 29.888 17.856 52.736 46.144 63.488 79.872-27.872-16.544-58.752-28.544-91.68-35.040-26.304 28.032-63.872 45.6-105.504 45.6-79.68 0-144.384-64.672-144.384-144.448 0-11.328 1.312-22.336 3.744-32.896-120 6.016-226.432 63.52-297.696 150.944-12.384-21.376-19.52-46.208-19.52-72.64 0-50.080 25.504-94.336 64.256-120.192-23.68 0.704-45.952 7.232-65.44 18.048 0-0.608 0-1.216 0-1.824 0-69.984 49.824-128.32 115.872-141.6-15.136-7.936-56.448-4.192-65.248-2.496 18.368-57.376 71.744-99.136 134.944-100.32-62.816-42.144-139.808-61.664-213.824-59.84 63.872-40.928 139.808-64.864 221.376-64.864z" />
<glyph unicode="&#xe90a;" glyph-name="royalties" d="M872.928 722.464c-3.072 6.752-8.672 11.904-15.36 14.336-6.784 2.656-14.656 2.4-21.728-0.736l-121.152-56.128c-1.184-0.64-2.368-1.408-3.52-2.24l-18.816-9.088c-12.736-6.208-27.808-6.976-41.44-1.984l-12.832 4.576c-27.104 9.696-57.632 8.416-83.712-3.744 0 0-158.336-73.92-197.92-92.64-23.616-11.168-38.144-33.472-38.88-59.616-0.704-25.152 11.488-47.616 31.904-58.72 24.224-13.056 52.864-12 85.056 3.136l74.208 34.56c13.312-21.856 38.912-54.528 79.936-71.232 22.72-9.344 47.456-12.672 73.376-9.92 22.080 2.336 45.344 9.12 69.152 20.16l-13.472 29.024c-20.608-9.568-40.48-15.392-59.072-17.376-20.672-2.144-40.096 0.384-57.888 7.712-40.992 16.704-63.328 54.208-71.008 69.568l-6.944 13.888-101.824-47.424c-22.912-10.72-41.344-12-56.32-3.968-9.536 5.216-15.488 16.864-15.136 29.696 0.192 6.656 2.592 23.072 20.576 31.584 39.552 18.72 197.76 92.576 197.728 92.576 18.464 8.64 40.064 9.6 59.424 2.624l12.736-4.544c20.896-7.584 44.064-6.72 64.064 2.272l135.040-290.656c3.040-6.656 8.576-11.808 15.68-14.496 3.008-1.12 6.272-1.696 9.568-1.696 0.992 0 2.016 0.064 3.040 0.16 3.648 0.416 6.784 1.408 8.8 2.592l120.608 56.192c13.888 6.656 19.808 23.328 13.28 36.928l-137.152 294.624zM866.432 365.44l-133.632 287.616 112.832 52.256 133.792-287.264-112.992-52.608zM152.128 317.696l51.104-46.912c49.92-38.912 94.336-69.28 140.8-96.096l228.512-111.744c9.088-4.448 19.136-6.784 29.056-6.784 7.136 0 14.368 1.216 21.664 3.616 16.768 5.76 30.304 17.728 38.048 33.472 1.664 3.232 3.008 6.56 4.064 10.016l1.184-0.608c32.128-15.904 73.056-1.76 88.832 30.464 3.296 6.848 5.344 14.112 6.208 21.568 21.536 3.136 40.16 16.512 49.952 36.512s8.704 43.072-1.856 61.76c5.44 5.28 9.92 11.424 13.184 18.24 7.808 15.904 8.896 33.952 3.136 50.752-5.76 16.768-17.728 30.304-33.696 38.144l-87.168 42.688-14.048-28.736 87.168-42.688c8.288-4.064 14.528-11.136 17.504-19.808 3.008-8.736 2.432-18.080-1.664-26.432-2.336-4.864-6.176-8.768-10.72-12.064l-178.944 89.216-14.272-28.64 190.304-94.848c6.464-9.984 7.712-22.592 2.368-33.536-4.096-8.416-11.52-13.984-20.064-16.832l-199.008 100.768-14.464-28.576 180.064-91.2 0.224-1.504c1.152-7.264 0.096-14.496-2.944-20.864-8.096-16.544-29.184-23.968-45.856-15.744l-21.504 10.656-136.96 70.336-14.624-28.48 128.16-65.824c-0.48-3.552-1.408-7.072-3.136-10.464-4.096-8.32-11.136-14.56-19.68-17.472-9.248-3.040-18.272-2.4-26.432 1.6l-227.552 111.232c-44.192 25.536-87.456 55.104-135.168 92.256l-42.656 39.2 155.328 285.76c6.432 13.92 0.704 30.144-12.768 36.832l-113.6 58.432c-6.56 3.392-14.368 3.968-21.472 1.536-6.912-2.336-12.608-7.296-15.84-13.824l-149.44-291.808c-6.464-13.856-0.8-30.048 13.024-37.024l115.648-56.544zM199.552 684.928l106.176-54.624-151.232-278.144-100.288 49.024 145.344 283.744z" />
<glyph unicode="&#xe90b;" glyph-name="distriubution" d="M895.68 452.8c0 1.088-0.064 2.208-0.096 3.296-0.096 5.024-0.192 10.048-0.512 15.104-0.352 5.76-0.864 11.488-1.472 17.248-0.672 6.592-1.6 13.152-2.656 19.744-0.736 4.544-1.376 9.088-2.272 13.632-2.208 11.392-4.832 22.784-8.16 34.144-4 13.696-8.96 26.848-14.304 39.712-1.344 3.232-2.72 6.432-4.16 9.6-5.376 12-11.2 23.744-17.664 34.976-0.32 0.544-0.576 1.12-0.896 1.664-7.2 12.32-15.168 24-23.552 35.296-1.216 1.6-2.432 3.2-3.68 4.768-41.92 54.496-97.376 96.32-160.032 121.76v0.064l-3.328 1.184c-8.416 3.328-16.928 6.432-25.6 9.152l-1.216 0.448-0.032-0.064c-36.48 11.392-74.752 17.6-113.856 17.6v0c0 0 0 0 0 0-35.744 0-72.096-5.056-108.128-15.584-75.456-22.112-138.88-65.408-185.888-121.408h-0.032l-0.256-0.32c-3.232-3.872-6.112-7.968-9.184-11.936l-10.144-13.12 0.16-0.128c-65.312-92.416-89.536-212.544-55.264-329.568 10.080-34.368 24.736-66.112 42.784-95.104l-0.32-0.224 9.056-13.28c1.664-2.432 3.264-4.896 4.96-7.296l4-5.888 0.352 0.224c72-96.512 186.176-154.624 307.488-154.624 30.624 0 61.664 3.968 92.608 11.648l0.16-0.544 30.72 8.992-0.224 0.768c149.76 50.656 248.864 185.664 259.584 336.032h0.576l0.48 15.904c0.064 2.56 0.192 5.12 0.224 7.68l0.256 8.448h-0.48zM413.056 785.824c32.384 9.472 65.728 14.272 99.136 14.304h0.032c35.552 0 70.144-5.696 103.008-15.936l-110.88-310.080-260.704 201.28c43.008 50.944 100.8 90.304 169.408 110.432zM174.176 349.056c-31.232 106.624-9.28 216.32 49.984 300.96l260.64-201.216-271.904-185.664c-16.416 26.432-29.696 55.136-38.72 85.92zM511.84 95.904c-112.064 0-215.424 54.528-280.768 140.896l271.776 185.6 92.448-315.584c-27.456-6.752-55.392-10.912-83.456-10.912zM626.080 115.456l-92.544 315.904 329.088-9.632c-10.4-136.768-100.64-259.68-236.544-306.272zM512.192 832.096v0 0z" />
<glyph unicode="&#xe90c;" glyph-name="engagement" d="M896 366.304c0 95.648-53.216 178.88-131.648 221.792 1.056 44.768-9.504 90.368-33.504 132-46.816 81.024-131.776 126.336-219.104 126.336-42.848 0-86.272-10.912-126.048-33.888-82.848-47.808-128.32-135.456-126.272-224.8-39.328-21.472-73.504-53.504-97.536-95.136-69.76-120.832-28.32-275.36 92.48-345.152 39.776-22.976 83.2-33.888 126.080-33.888 46.336 0 91.84 13.12 131.488 37.216 38.336-23.424 83.232-37.184 131.424-37.184 139.488 0.032 252.64 113.184 252.64 252.704zM512.032 189.344c-51.936 38.624-86.272 99.36-88.96 168.256 28.448-10.688 58.624-16.576 89.216-16.576 29.824 0 59.808 5.632 88.736 16.608-1.312-34.688-10.688-69.568-29.216-101.696-15.296-26.464-35.84-48.896-59.776-66.592zM512.192 543.328c50.144-37.184 80.544-92.832 87.392-151.936-27.584-11.936-57.28-18.368-87.296-18.368-30.784 0-60.64 6.656-88.064 18.592 7.136 62.080 40.192 116.256 87.968 151.712zM394.304 407.68c-29.76 18.784-55.296 44.352-73.408 75.712-15.552 26.976-24.672 55.904-28 85.024 27.392 11.968 57.28 18.592 88.032 18.592 35.456 0 70.368-9.056 101.888-25.568-46.144-38.016-78.304-92.16-88.512-153.76zM540.704 561.472c30.688 16.192 65.568 25.472 102.624 25.472 31.136 0 60.704-6.56 87.584-18.24-7.424-64.256-42.784-124.352-100.992-161.184-9.824 59.2-40.736 114.304-89.216 153.952zM401.696 784.832c33.536 19.36 71.584 29.6 110.048 29.6 78.72 0 152.064-42.272 191.36-110.336 18.528-32.064 27.904-66.912 29.248-101.568-27.744 10.464-57.632 16.448-89.024 16.448-48.128 0-92.992-13.728-131.296-37.12-1.696 1.056-3.264 2.24-5.024 3.264-39.776 22.976-83.232 33.888-126.080 33.888-30.56 0-60.704-5.888-89.152-16.544 3.040 73.088 42.016 143.2 109.92 182.368zM380.416 145.6c-38.496 0-76.544 10.24-110.080 29.568-105.344 60.864-141.568 196.096-80.736 301.44 18.112 31.36 43.648 56.928 73.408 75.712 4.8-29.12 14.56-57.888 30.176-84.96 24.064-41.696 58.336-73.728 97.76-95.2-0.032-1.984-0.288-3.904-0.288-5.888 0-78.528 35.872-148.704 92.096-195.072-31.168-16.288-66.080-25.6-102.336-25.6zM599.52 239.968c24.064 41.728 34.624 87.456 33.504 132.352 1.76 0.96 3.584 1.632 5.344 2.624 68.096 39.328 110.976 105.568 122.912 177.536 61.6-39.2 102.72-107.904 102.72-186.176 0-121.664-99.008-220.672-220.672-220.672-37.12 0-72.032 9.312-102.752 25.568 22.944 18.784 43.232 41.536 58.944 68.768z" />
<glyph unicode="&#xe90d;" glyph-name="no_subscrtiption" d="M511.872 832c-211.936 0-383.872-171.936-383.872-384s171.936-384 383.872-384c212.192 0 384.128 171.936 384.128 384s-171.936 384-384.128 384zM511.872 800c91.328 0 174.4-35.232 237.024-92.48l-496.48-496.48c-57.184 62.624-92.416 145.632-92.416 236.96 0 194.080 157.856 352 351.872 352zM511.872 96c-91.264 0-174.24 35.232-236.832 92.416l496.512 496.512c57.216-62.624 92.448-145.632 92.448-236.928 0-194.080-157.984-352-352.128-352z" />
<glyph unicode="&#xe90e;" glyph-name="environmental" d="M535.52 587.456c-47.296-60.16-73.6-130.816-87.68-199.232-9.76 38.976-24.928 77.76-48.704 113.088-108.704 161.6-348.64 190.752-348.64 190.752s-63.648-233.248 45.12-394.784c108.384-161.312 347.008-190.624 348.416-190.784v-0.032c0 0 0.064 0 0.096 0h0.032c1.376 0.064 297.632 14.176 445.664 202.464 148.288 188.576 91.456 480.864 91.456 480.864s-297.472-13.6-445.76-202.336zM122.144 315.168c-77.888 115.68-58.88 275.84-46.912 340.128 64-13.088 219.232-55.744 297.312-171.872 72.96-108.384 60.896-255.68 49.216-326.72-50.848 58.4-123.552 166.976-216.448 333.664 69.952-167.424 126.624-272.352 182.336-339.616-74.208 19.136-198.496 64.704-265.504 164.416zM864.672 328.704c-104.448-132.832-292.544-173.632-377.888-185.6 37.408 69.568 135.072 243.776 261.056 411.584-105.184-90.944-218.304-288.064-278.752-392.576-8.16 88.16-10.784 275.36 91.584 405.568 111.296 141.632 317.696 178.528 393.376 187.456 9.12-75.648 21.92-284.928-89.376-426.432z" />
<glyph unicode="&#xe90f;" glyph-name="social" d="M149.984 538.528c14.208-14.208 30.432-24.864 47.36-33.664-3.328-18.496-5.344-37.44-5.344-56.864s2.016-38.336 5.344-56.8c-16.928-8.832-33.152-19.456-47.36-33.696-74.976-74.976-74.976-196.576 0-271.52 37.472-37.472 86.624-56.224 135.776-56.224s98.272 18.752 135.744 56.224c14.208 14.208 24.864 30.432 33.696 47.36 18.432-3.36 37.376-5.344 56.8-5.344s38.368 2.016 56.832 5.344c8.832-16.928 19.456-33.152 33.696-47.36 37.472-37.472 86.624-56.224 135.744-56.224s98.272 18.752 135.776 56.224c74.976 74.976 74.944 196.576 0 271.52-14.208 14.208-30.432 24.832-47.36 33.696 3.296 18.464 5.312 37.376 5.312 56.8s-2.016 38.368-5.344 56.832c16.928 8.8 33.152 19.456 47.36 33.664 75.008 74.976 74.976 196.544 0 271.52-37.472 37.504-86.624 56.256-135.776 56.256-49.12 0-98.272-18.752-135.744-56.256-14.208-14.208-24.864-30.432-33.664-47.36-18.464 3.328-37.408 5.344-56.832 5.344s-38.368-2.016-56.832-5.344c-8.832 16.928-19.456 33.152-33.696 47.36-37.472 37.504-86.624 56.256-135.744 56.256-49.152 0-98.272-18.752-135.776-56.256-74.976-74.944-74.976-196.512 0.032-271.488zM285.728 834.272c42.72 0 82.912-16.672 113.12-46.88s46.848-70.4 46.848-113.12c0-42.752-16.64-82.912-46.848-113.152s-70.4-46.848-113.12-46.848c-42.752 0-82.912 16.64-113.152 46.848s-46.88 70.4-46.88 113.152 16.672 82.912 46.88 113.12 70.432 46.88 113.152 46.88zM285.728 61.76c-42.752 0-82.912 16.64-113.152 46.848s-46.848 70.4-46.848 113.12c0 42.752 16.64 82.944 46.848 113.152s70.4 46.848 113.152 46.848 82.912-16.64 113.12-46.848c62.368-62.4 62.368-163.904 0-226.272-30.208-30.24-70.368-46.848-113.12-46.848zM738.272 61.76c-42.72 0-82.912 16.64-113.12 46.848-62.368 62.368-62.368 163.872 0 226.272 30.208 30.208 70.4 46.848 113.152 46.848s82.912-16.64 113.12-46.848c62.368-62.4 62.4-163.904 0-226.272-30.24-30.24-70.4-46.848-113.152-46.848zM851.392 787.392c30.208-30.208 46.88-70.4 46.88-113.12s-16.672-82.912-46.88-113.152-70.4-46.848-113.12-46.848c-42.752 0-82.912 16.64-113.152 46.848s-46.848 70.4-46.848 113.152c0 42.72 16.64 82.912 46.848 113.12s70.4 46.88 113.152 46.88 82.912-16.64 113.12-46.88zM512 736c15.040 0 29.696-1.504 44.096-3.744-20.992-66.176-6.080-141.28 46.4-193.76 37.472-37.472 86.624-56.224 135.776-56.224 19.648 0 39.072 3.84 57.984 9.824 2.24-14.4 3.744-29.056 3.744-44.096s-1.504-29.696-3.744-44.096c-18.912 6.016-38.336 9.824-57.984 9.824-49.152 0-98.272-18.72-135.776-56.224-52.48-52.512-67.392-127.584-46.4-193.76-14.4-2.24-29.056-3.744-44.096-3.744s-29.696 1.504-44.096 3.744c20.992 66.144 6.080 141.248-46.4 193.76-37.504 37.504-86.656 56.256-135.776 56.224-19.648 0-39.072-3.84-57.984-9.824-2.24 14.4-3.744 29.056-3.744 44.096s1.504 29.696 3.744 44.096c18.88-5.984 38.336-9.824 57.984-9.824 49.152 0 98.272 18.752 135.776 56.224 52.48 52.48 67.392 127.584 46.4 193.76 14.4 2.24 29.056 3.744 44.096 3.744z" />
<glyph unicode="&#xe910;" glyph-name="economic" d="M64 224h256v160h-256v-160zM96 352h192v-96h-192v96zM640 224v320h-256v-320h256zM416 512h192v-256h-192v256zM960 224v448h-256v-448h256zM736 640v1.088h192v-385.088h-192v384z" />
<glyph unicode="&#xe911;" glyph-name="provenance" d="M511.936 832c-141.312 0-255.936-103.616-255.936-307.2s255.936-460.8 255.936-460.8 256.064 257.216 256.064 460.8-114.624 307.2-256.064 307.2zM288 524.8c0 169.76 85.792 275.2 223.936 275.2 138.208 0 224.064-105.44 224.064-275.2 0-153.472-163.040-346.976-224.064-414.048-61.024 67.072-223.936 260.544-223.936 414.048zM511.968 486.24c-61.728 0-111.968 50.24-111.968 112s50.208 112 111.968 112c61.792 0 112.032-50.24 112.032-112s-50.272-112-112.032-112zM511.968 678.24c-44.096 0-79.968-35.904-79.968-80s35.872-80 79.968-80c44.128 0 80.032 35.904 80.032 80s-35.904 80-80.032 80z" />
<glyph unicode="&#xe912;" glyph-name="royalties_2" d="M128 192h768v-32h-768v32zM512 677.664l163.872-249.824 241.152 96.48-47.232-236.32h-715.584l-47.264 236.352 241.152-96.48 14.336 21.888 149.568 227.904zM512 736l-176.288-268.704-271.712 108.704 64-320h768l64 320-271.712-108.704-176.288 268.704z" />
<glyph unicode="&#xe913;" glyph-name="transparency" d="M358.784 153.216c56.16 0 108.48 16 153.152 43.296 0.8-0.512 1.568-1.056 2.4-1.568l-0.096-0.16c0.544-0.32 1.024-0.64 1.536-0.896 0.032-0.032 0.064-0.032 0.064-0.064 0.064 0 0.096-0.032 0.16-0.064 0.032-0.032 0.064-0.032 0.096-0.064s0.064-0.032 0.096-0.064 0.096-0.064 0.16-0.096c0 0 0.032 0 0.032-0.032 0.064-0.032 0.128-0.064 0.192-0.096h0.032c0.416-0.256 0.8-0.512 1.216-0.704 0.064-0.032 0.128-0.064 0.192-0.096 0-0.032 0.032-0.032 0.032-0.032 0.064-0.032 0.128-0.064 0.192-0.128 0 0 0 0 0.032 0 0.032-0.032 0.096-0.064 0.16-0.096 0.032 0 0.032-0.032 0.032-0.032 0.064-0.032 0.128-0.064 0.192-0.096 0.032 0 0.032 0 0.032 0 0.064-0.064 0.128-0.096 0.16-0.128 0.032 0 0.032 0 0.064 0 0.064-0.032 0.128-0.096 0.192-0.128s0.128-0.064 0.192-0.096c0 0 0-0.032 0.032-0.032 0.064-0.032 0.128-0.064 0.192-0.096 0 0 0 0 0-0.032 0.064-0.032 0.128-0.064 0.192-0.096 0.032 0 0.032 0 0.032 0 0.064-0.032 0.128-0.096 0.192-0.128s0.16-0.064 0.224-0.128c0.064-0.032 0.128-0.064 0.192-0.096h0.032c0.128-0.096 0.256-0.16 0.416-0.256 0.128-0.064 0.288-0.16 0.416-0.224 0.16-0.096 0.288-0.16 0.416-0.256h0.032c9.568-5.344 19.328-9.952 29.248-14.080 2.624-1.12 5.28-2.016 7.936-3.104 4.544-1.76 8.992-3.68 13.568-5.216l0.192 0.608c20.512-6.816 41.312-11.488 62.272-13.664l-0.032-0.384c7.904-0.8 15.776-1.312 23.648-1.472 0.032 0 0.032 0 0.032 0 0.16-0.032 0.288-0.032 0.448-0.032 0.096 0 0.192 0 0.288 0 0.064 0 0.096 0 0.16 0h0.032c0.064 0 0.16 0 0.224 0 0.032 0 0.064 0 0.096 0s0.064 0 0.096 0 0.096 0 0.16 0c0.032 0 0.064 0 0.096 0s0.064 0 0.096-0.032c0.064 0 0.096 0 0.16 0 0.032 0 0.064 0 0.128 0 0.032 0 0.064 0 0.096 0s0.096 0 0.128 0 0.096 0 0.128 0 0.064 0 0.128 0h0.064c0.064 0 0.128 0 0.192 0 0.032 0 0.064 0 0.096 0s0.064 0 0.128 0c0.032 0 0.064 0 0.064 0 0.064 0 0.128 0 0.192 0 0 0 0.032 0 0.064 0 0.064 0 0.128 0 0.192 0 0 0 0.032 0 0.064 0s0.096 0 0.16 0c0 0 0.032 0 0.064 0 0.064 0 0.128 0 0.192 0 0 0 0.032 0 0.064 0 0.064 0 0.128 0 0.192 0s0.128 0 0.224 0h0.032c0.064-0.032 0.16-0.032 0.224-0.032h0.032c0.064 0 0.128 0 0.192 0h0.032c0.064 0 0.128 0 0.192 0 0.032 0 0.064 0 0.064 0 0.064 0 0.128 0 0.192 0h0.032c0.064 0 0.128 0 0.192 0 0.032 0 0.032 0 0.064 0 0.064 0 0.128 0 0.192 0 0.032 0 0.032 0 0.064 0s0.096 0 0.16 0c0.032 0 0.032 0 0.064 0 0.064 0 0.128 0 0.192 0 0.032 0 0.032 0 0.064 0 0.064 0 0.128 0 0.192 0 0.096 0 0.192 0 0.288 0 0.032 0 0.064 0 0.096 0 0.064 0 0.128 0 0.192 0s0.096 0 0.128 0 0.096 0 0.16 0 0.096 0 0.128 0c0.064 0 0.128 0 0.192 0 0.032 0 0.064 0 0.096 0 0.064 0 0.128 0 0.192 0 0.032 0 0.064 0 0.096 0 0.064 0 0.128 0 0.192 0 0.032 0 0.064 0 0.096 0 0.096 0 0.16 0 0.224 0 0.032 0 0.064 0.032 0.064 0.032 0.096 0 0.224 0 0.32 0s0.192 0 0.288 0c0.032 0 0.032 0 0.064 0 0.064 0 0.16 0 0.224 0 0.032 0 0.064 0 0.096 0 0.064 0 0.128 0 0.192 0 0.032 0 0.064 0 0.096 0 0.064 0 0.128 0 0.192 0 0.032 0 0.064 0 0.096 0 0.064 0 0.16 0 0.192 0s0.064 0 0.096 0c0.096 0 0.16 0 0.224 0 0.032 0 0.064 0 0.096 0 0.064 0 0.16 0 0.224 0 0.032 0 0.032 0 0.064 0 0.096 0 0.192 0 0.288 0 0.096 0.032 0.192 0.032 0.288 0.032 0.032 0 0.064 0 0.064 0 0.096 0 0.16 0 0.224 0 0.032 0 0.064 0 0.096 0 0.064 0 0.128 0 0.192 0 0.032 0 0.064 0 0.096 0 0.064 0 0.16 0 0.192 0 0.064 0 0.096 0 0.128 0 0.064 0 0.128 0 0.192 0 0.032 0 0.064 0 0.096 0 0.064 0 0.128 0.032 0.224 0.032 0 0 0.032 0 0.064 0 0.096 0 0.16 0 0.256 0h0.032c0.192 0 0.384 0 0.576 0 0.032 0 0.064 0 0.064 0 0.096 0 0.16 0 0.256 0 0 0.032 0.032 0.032 0.064 0.032 0.064 0 0.16 0 0.224 0 0.032 0 0.064 0 0.064 0 0.096 0 0.16 0 0.224 0 0.032 0 0.064 0 0.096 0 0.064 0 0.128 0 0.224 0 0 0 0.032 0 0.064 0 0.064 0 0.16 0.032 0.224 0.032 0.032 0 0.032 0 0.064 0 0.288 0 0.608 0 0.864 0.032 0 0 0 0 0.032 0 0.064 0 0.16 0 0.256 0 0.032 0 0.032 0 0.064 0 0.064 0 0.16 0 0.256 0h0.032c0.096 0 0.16 0 0.256 0 0 0.032 0.032 0.032 0.032 0.032 0.096 0 0.192 0 0.256 0 0.032 0 0.032 0 0.064 0 0.096 0 0.192 0 0.288 0 0.384 0.032 0.768 0.032 1.184 0.064 0.096 0 0.192 0 0.288 0 0 0 0 0 0.032 0 0.096 0 0.16 0 0.288 0.032 6.912 0.288 13.792 0.832 20.64 1.632l-0.032 0.256c21.216 2.432 41.984 7.488 62.144 14.4l0.192-0.576c3.136 1.056 6.112 2.528 9.216 3.68 3.712 1.44 7.36 2.88 11.040 4.448 7.616 3.264 15.104 6.912 22.432 10.816 3.040 1.632 6.112 3.072 9.088 4.768 1.024 0.608 2.112 1.056 3.136 1.664 0 0 0 0 0.032 0 0.064 0.064 0.128 0.096 0.224 0.128 0 0.032 0 0.032 0.032 0.032 0.064 0.032 0.16 0.096 0.224 0.128 0 0.032 0.032 0.032 0.032 0.032 0.16 0.096 0.32 0.192 0.512 0.288 0 0.032 0 0.032 0.032 0.032 0.064 0.032 0.128 0.096 0.192 0.128 0.032 0 0.064 0.032 0.096 0.032 0.032 0.032 0.096 0.064 0.16 0.096 0.032 0.032 0.064 0.064 0.096 0.064 0.032 0.032 0.096 0.064 0.16 0.096 0.032 0.032 0.032 0.032 0.064 0.064 0.064 0.032 0.128 0.064 0.192 0.096 0.032 0.032 0.032 0.032 0.064 0.032 0.064 0.064 0.16 0.096 0.224 0.16 0.032 0 0.096 0.032 0.128 0.064s0.064 0.032 0.128 0.064c0.032 0.032 0.064 0.064 0.128 0.096 0.032 0 0.064 0.032 0.096 0.064 0.064 0.032 0.096 0.064 0.128 0.064 0.032 0.032 0.032 0.032 0.064 0.032l-0.256 0.416c18.048 11.008 35.168 23.776 50.72 38.688l0.128-0.128c0.416 0.416 0.768 0.864 1.184 1.28 2.112 2.048 4.032 4.384 6.080 6.496 6.304 6.528 12.448 13.28 18.176 20.512 2.624 3.232 5.024 6.624 7.488 10.016 2.656 3.616 5.536 6.976 8.032 10.72l-0.576 0.384c3.52 5.344 7.424 10.304 10.688 15.936 7.584 13.152 13.696 26.752 19.072 40.48l0.352-0.128c1.344 3.424 2.464 6.944 3.648 10.4 0.672 1.888 1.376 3.744 1.984 5.632 0.288 0.832 0.672 1.696 0.896 2.528 0.032 0 0 0 0.032 0 0 0.064 0.032 0.16 0.064 0.224 0 0.032 0 0 0 0.032 0.032 0.064 0.032 0.128 0.064 0.224 0.16 0.512 0.32 0.96 0.48 1.44 0 0.096 0.032 0.16 0.064 0.256s0.064 0.16 0.064 0.224c0 0 0 0.032 0.032 0.032 0 0.064 0.032 0.16 0.064 0.224 0 0 0 0 0 0.032 0.032 0.064 0.032 0.128 0.064 0.192 0 0.032 0 0.032 0 0.032 0.032 0.096 0.064 0.16 0.064 0.224v0.032c0.032 0.064 0.064 0.128 0.096 0.224 0.064 0.256 0.128 0.512 0.224 0.704v0.032c0.032 0.064 0.032 0.128 0.064 0.224 0 0 0 0.032 0 0.064 0.032 0.032 0.032 0.096 0.064 0.16 0 0.032 0 0.032 0.032 0.064 0 0.064 0.032 0.128 0.032 0.16s0.032 0.064 0.032 0.096c0 0.064 0.032 0.096 0.032 0.16 0.032 0.032 0.032 0.032 0.032 0.064 0.032 0.064 0.032 0.128 0.064 0.16 0 0.032 0 0.064 0 0.096 0.032 0.064 0.032 0.096 0.064 0.16 0 0.032 0 0.032 0.032 0.064 0 0.064 0.032 0.128 0.032 0.16s0.032 0.064 0.032 0.096c0 0.064 0.032 0.096 0.032 0.16 0.032 0.032 0.032 0.064 0.032 0.064 0.032 0.064 0.032 0.128 0.064 0.192 0 0.032 0 0.032 0 0.064 0.032 0.064 0.064 0.16 0.064 0.224 0.032 0.032 0.032 0.032 0.032 0.064 0 0.064 0.032 0.128 0.032 0.16 0.032 0.032 0.032 0.064 0.032 0.096 0.032 0.064 0.032 0.096 0.064 0.16 0 0.032 0 0.064 0 0.096 0.032 0.032 0.032 0.096 0.064 0.128 0 0.032 0 0.064 0.032 0.128 0 0.032 0 0.064 0.032 0.096 0 0.064 0 0.096 0.032 0.128 0 0.032 0 0.064 0.032 0.128 0 0.032 0.032 0.064 0.032 0.096 0 0.064 0.032 0.096 0.032 0.128s0.032 0.064 0.032 0.128c0 0.032 0.032 0.064 0.032 0.096s0.032 0.096 0.032 0.128 0.032 0.064 0.032 0.096c0 0.064 0.032 0.096 0.032 0.16 0 0.032 0.032 0.064 0.032 0.096 0.064 0.16 0.096 0.32 0.16 0.512 0 0.032 0 0.032 0 0.064 0.032 0.064 0.032 0.096 0.064 0.16 0 0.032 0 0.064 0 0.096 0.032 0.032 0.032 0.096 0.032 0.128 0.032 0.032 0.032 0.064 0.032 0.096 0.032 0.032 0.032 0.096 0.064 0.128 0 0.032 0 0.064 0 0.096 0.032 0.064 0.032 0.096 0.064 0.16 0 0.032 0 0.032 0 0.064 0.032 0.064 0.032 0.096 0.064 0.16 0 0.032 0 0.064 0 0.064 0.032 0.064 0.032 0.128 0.064 0.16 0 0.032 0 0.064 0 0.096 0.032 0.032 0.032 0.096 0.064 0.16v0.032c0.128 0.448 0.256 0.864 0.352 1.28 0.032 0.064 0.064 0.16 0.064 0.224 0 0 0 0 0 0.032 0.032 0.064 0.032 0.128 0.064 0.192 0 0 0 0 0 0.032 0.032 0.064 0.032 0.128 0.064 0.192v0.032c0.032 0.064 0.032 0.128 0.064 0.192v0.032c0.48 1.728 0.672 3.456 1.088 5.184 1.344 5.504 2.432 11.008 3.456 16.544 0.544 2.848 1.344 5.696 1.792 8.544l-0.288 0.032c3.296 21.248 4.448 42.624 3.072 63.776h0.096c-0.032 0.32-0.096 0.64-0.096 0.928-0.224 3.2-0.704 6.336-1.024 9.536-0.608 5.856-1.152 11.712-2.080 17.504-0.576 3.648-1.408 7.264-2.112 10.88-0.8 4.032-1.44 8.128-2.4 12.128 0 0 0 0 0 0 0 0.064-0.032 0.128-0.032 0.192 0 0 0 0 0 0-0.032 0.064-0.064 0.128-0.064 0.192 0 0 0 0 0 0-0.032 0.064-0.032 0.128-0.064 0.192 0 0 0 0 0 0-0.096 0.352-0.16 0.672-0.256 1.024 0 0 0 0.032 0 0.032-0.032 0.064-0.032 0.096-0.064 0.16 0 0 0 0.032 0 0.032-0.032 0.032-0.032 0.096-0.064 0.16 0 0 0 0.032 0 0.032 0 0.064-0.032 0.128-0.032 0.16 0 0-0.032 0.032-0.032 0.032 0 0.064-0.032 0.128-0.032 0.16 0 0 0 0.032-0.032 0.064 0 0.032 0 0.096-0.032 0.16-0.032 0.192-0.096 0.384-0.16 0.576 0 0.032 0 0.064 0 0.096-0.032 0.032-0.032 0.064-0.032 0.128-0.032 0.032-0.032 0.064-0.032 0.096s-0.032 0.064-0.032 0.128c0 0.032-0.032 0.064-0.032 0.096s-0.032 0.096-0.032 0.128-0.032 0.064-0.032 0.096c0 0.032 0 0.096-0.032 0.128 0 0.032 0 0.064-0.032 0.096 0 0.032 0 0.096-0.032 0.128 0 0.032 0 0.064-0.032 0.096 0 0.032 0 0.064-0.032 0.096 0 0.064 0 0.096-0.032 0.16 0 0.032 0 0.064-0.032 0.096 0 0.064-0.032 0.128-0.032 0.192-0.032 0.032-0.032 0.032-0.032 0.064 0 0.064-0.032 0.096-0.032 0.16-0.032 0.032-0.032 0.064-0.032 0.064 0 0.032-0.032 0.096-0.032 0.16 0 0-0.032 0.064-0.032 0.096s-0.032 0.096-0.032 0.128c0 0.032-0.032 0.032-0.032 0.064s-0.032 0.096-0.032 0.128c0 0.032-0.032 0.064-0.032 0.096s-0.032 0.096-0.032 0.16c0 0.032-0.032 0.032-0.032 0.064 0 0.064-0.032 0.128-0.064 0.224v0c0 0.032-0.032 0.064-0.032 0.096-0.032 0.096-0.032 0.16-0.064 0.256 0 0.032 0 0.064-0.032 0.096 0 0 0 0.032 0 0.032-0.032 0.064-0.032 0.128-0.064 0.192 0 0 0 0.032 0 0.032-0.032 0.064-0.032 0.128-0.064 0.192 0 0 0 0.032 0 0.032-0.032 0.064-0.032 0.128-0.064 0.192 0 0 0 0.032 0 0.032-0.032 0.064-0.032 0.128-0.064 0.192 0 0.032 0 0.032 0 0.032-0.032 0.064-0.064 0.16-0.064 0.224-0.128 0.384-0.224 0.8-0.352 1.216-0.032 0.064-0.032 0.16-0.064 0.224-0.224 0.704-0.416 1.44-0.64 2.176l-0.192-0.064c-5.888 20.48-14.048 40.224-24.256 59.040l0.32 0.16c-1.632 3.008-3.488 5.888-5.216 8.832-1.44 2.464-2.848 4.928-4.384 7.328-0.672 1.088-1.248 2.208-1.952 3.296 0 0 0 0 0 0-0.032 0.064-0.096 0.128-0.128 0.192 0 0 0 0 0 0-0.064 0.064-0.096 0.128-0.128 0.192-0.064 0.064-0.096 0.128-0.16 0.192v0c-0.128 0.192-0.256 0.416-0.416 0.64-0.032 0.064-0.096 0.128-0.128 0.192 0 0-0.032 0.032-0.032 0.032-0.032 0.032-0.064 0.096-0.096 0.16 0 0-0.032 0.032-0.032 0.032-0.032 0.064-0.064 0.096-0.096 0.16-0.032 0-0.032 0.032-0.032 0.064-0.064 0.032-0.096 0.096-0.128 0.128 0 0 0 0.032-0.032 0.064s-0.064 0.096-0.096 0.128c0 0-0.032 0.032-0.032 0.064-0.032 0.032-0.064 0.096-0.096 0.128-0.032 0-0.032 0.032-0.032 0.032-0.032 0.064-0.096 0.128-0.128 0.192 0 0 0 0-0.032 0-0.032 0.064-0.064 0.128-0.128 0.192 0 0 0 0 0 0.032-0.064 0.064-0.096 0.096-0.128 0.16 0 0-0.032 0.032-0.032 0.064-0.032 0.032-0.064 0.096-0.096 0.128-0.032 0-0.032 0.032-0.064 0.064s-0.032 0.064-0.064 0.128c-0.032 0.032-0.064 0.064-0.064 0.064-0.032 0.032-0.064 0.064-0.096 0.128 0 0.032-0.032 0.032-0.032 0.064-0.032 0.032-0.064 0.064-0.096 0.096 0 0.032-0.032 0.064-0.064 0.096 0 0.032-0.032 0.064-0.064 0.096s-0.032 0.064-0.064 0.096-0.032 0.064-0.064 0.096-0.032 0.064-0.064 0.096c-0.032 0-0.032 0.032-0.064 0.064-0.032 0.064-0.096 0.128-0.128 0.224-0.032 0.032-0.064 0.064-0.064 0.096-0.032 0.032-0.064 0.064-0.096 0.096 0 0.032-0.032 0.064-0.064 0.096 0 0-0.032 0.064-0.064 0.096 0 0.032-0.032 0.064-0.064 0.096s-0.032 0.064-0.064 0.096c-0.032 0.032-0.032 0.064-0.064 0.096-0.032 0-0.064 0.064-0.064 0.096-0.032 0.032-0.064 0.064-0.064 0.096-0.032 0.032-0.064 0.064-0.096 0.096 0 0.032-0.032 0.064-0.032 0.064-0.032 0.032-0.064 0.064-0.096 0.096 0 0.032-0.032 0.064-0.032 0.064-0.032 0.032-0.064 0.096-0.096 0.128-0.032 0-0.032 0.032-0.032 0.064-0.128 0.16-0.224 0.288-0.32 0.448-0.032 0.032-0.032 0.032-0.064 0.064 0 0.032-0.032 0.096-0.064 0.128-0.032 0-0.032 0.032-0.064 0.064 0 0.032-0.064 0.096-0.096 0.128 0 0 0 0.032-0.032 0.064s-0.064 0.064-0.096 0.128c0 0.032-0.032 0.032-0.032 0.064-0.032 0.032-0.064 0.096-0.096 0.128 0 0-0.032 0.032-0.032 0.032-0.032 0.064-0.064 0.096-0.096 0.128-0.032 0-0.032 0.032-0.032 0.032-0.032 0.032-0.064 0.096-0.128 0.16-0.16 0.256-0.32 0.48-0.512 0.704v0c-0.032 0.032-0.064 0.096-0.096 0.16-0.032 0-0.032 0-0.032 0.032-0.032 0.064-0.064 0.096-0.128 0.16 0 0 0 0 0 0.032-0.032 0.032-0.096 0.096-0.128 0.16 0 0 0 0.032-0.032 0.032-0.032 0.032-0.064 0.096-0.096 0.16 0 0-0.032 0.032-0.032 0.032-0.032 0.064-0.064 0.096-0.096 0.16 0 0 0 0-0.032 0-0.192 0.32-0.416 0.608-0.64 0.896-0.032 0.064-0.096 0.096-0.128 0.16v0c-0.032 0.064-0.096 0.096-0.128 0.16 0 0 0 0.032-0.032 0.032-0.032 0.064-0.064 0.096-0.096 0.16 0 0-0.032 0-0.032 0-0.288 0.416-0.608 0.832-0.864 1.248 0 0 0 0-0.032 0-0.032 0.064-0.064 0.096-0.096 0.16-0.032 0-0.032 0.032-0.032 0.032-0.032 0.064-0.064 0.096-0.128 0.16 0 0 0 0 0 0.032-0.032 0.032-0.096 0.096-0.128 0.16 0 0 0 0 0 0-0.32 0.416-0.64 0.832-0.896 1.248 0 0-0.032 0-0.032 0-0.032 0.064-0.064 0.096-0.128 0.16v0c-0.032 0.064-0.096 0.096-0.128 0.16-0.32 0.416-0.64 0.832-0.928 1.28-0.032 0.032-0.096 0.096-0.128 0.16v0c-0.064 0.064-0.096 0.096-0.128 0.16 0 0 0 0-0.032 0-0.032 0.032-0.064 0.096-0.096 0.16-0.032 0-0.032 0-0.032 0-0.256 0.352-0.544 0.704-0.768 1.056 0 0 0 0 0 0-0.064 0.032-0.096 0.096-0.16 0.16-0.032 0.064-0.064 0.096-0.128 0.16v0c-0.032 0.032-0.096 0.096-0.128 0.16 0 0 0 0-0.032 0.032s-0.064 0.096-0.096 0.16c-0.032 0-0.032 0-0.032 0.032-0.288 0.352-0.544 0.672-0.8 1.056-0.032 0.064-0.064 0.096-0.128 0.16v0c-0.032 0.032-0.096 0.096-0.128 0.16 0 0-0.032 0-0.032 0.032-0.032 0.032-0.064 0.096-0.128 0.16v0c-0.032 0.032-0.096 0.096-0.128 0.16-0.288 0.352-0.544 0.672-0.8 1.056 0 0 0 0-0.032 0.032s-0.064 0.096-0.096 0.128c-0.032 0-0.032 0.032-0.032 0.032-0.032 0.032-0.096 0.096-0.128 0.128 0 0-0.032 0-0.032 0.032-0.032 0.032-0.064 0.096-0.096 0.16-0.032 0-0.032 0-0.032 0-0.032 0.064-0.096 0.096-0.128 0.16 0 0 0 0 0 0-0.192 0.224-0.384 0.448-0.544 0.672-0.032 0-0.032 0-0.032 0-0.032 0.032-0.064 0.096-0.128 0.128 0 0 0 0.032-0.032 0.032-0.032 0.032-0.064 0.096-0.096 0.128 0 0-0.032 0.032-0.032 0.064-0.032 0.032-0.064 0.064-0.096 0.128-0.032 0-0.032 0.032-0.064 0.064s-0.064 0.064-0.096 0.096-0.032 0.032-0.064 0.064-0.064 0.064-0.096 0.096c0 0.032-0.032 0.032-0.032 0.064-0.032 0.032-0.064 0.064-0.096 0.128-0.032 0-0.032 0.032-0.064 0.032-0.128 0.16-0.224 0.32-0.352 0.448 0 0-0.032 0.032-0.032 0.032-0.032 0.032-0.064 0.064-0.096 0.096s-0.032 0.032-0.064 0.064-0.064 0.064-0.096 0.096c0 0-0.032 0.032-0.064 0.064s-0.032 0.064-0.064 0.096-0.064 0.064-0.064 0.096-0.064 0.064-0.096 0.096-0.032 0.064-0.064 0.064c-0.032 0.032-0.064 0.064-0.096 0.096s-0.032 0.064-0.064 0.064-0.064 0.064-0.064 0.096c-0.032 0.032-0.064 0.064-0.096 0.096s-0.032 0.032-0.064 0.096c-0.032 0.032-0.064 0.064-0.096 0.096-0.032 0.064-0.096 0.128-0.16 0.192-0.032 0-0.032 0.032-0.064 0.064 0 0.032-0.032 0.064-0.064 0.096s-0.064 0.064-0.064 0.096c-0.032 0-0.064 0.064-0.096 0.064-0.032 0.032-0.032 0.064-0.064 0.096-0.032 0-0.064 0.032-0.096 0.064 0 0.032-0.032 0.064-0.064 0.096s-0.064 0.064-0.064 0.096c-0.032 0.032-0.064 0.064-0.096 0.096-0.032 0-0.032 0.032-0.064 0.064s-0.064 0.064-0.096 0.096c-0.032 0-0.032 0.032-0.064 0.064s-0.064 0.096-0.096 0.128c-0.032 0-0.032 0.032-0.064 0.064s-0.064 0.064-0.096 0.128c-0.032 0.032-0.032 0.032-0.064 0.032-0.032 0.064-0.096 0.128-0.128 0.192-0.032 0-0.032 0.032-0.064 0.064s-0.064 0.064-0.096 0.128c-0.032 0-0.032 0.032-0.064 0.064s-0.064 0.064-0.096 0.128c-0.032 0.032-0.032 0.032-0.064 0.064s-0.064 0.096-0.096 0.128-0.032 0.032-0.064 0.064c-0.032 0.032-0.064 0.096-0.096 0.128-0.032 0-0.032 0.032-0.064 0.064s-0.064 0.096-0.096 0.128c-0.032 0-0.032 0.032-0.064 0.032-0.032 0.032-0.064 0.096-0.128 0.16 0 0 0 0 0 0.032-0.224 0.256-0.448 0.512-0.672 0.768-0.064 0.064-0.096 0.128-0.16 0.192 0 0 0 0 0 0-0.064 0.032-0.096 0.096-0.16 0.16 0 0 0 0-0.032 0-0.032 0.064-0.096 0.128-0.128 0.16 0 0 0 0-0.032 0-0.032 0.064-0.096 0.128-0.128 0.16 0 0-0.032 0-0.032 0.032-0.96 1.152-1.952 2.304-2.944 3.424l-0.224-0.192c-13.792 15.904-29.28 30.592-46.688 43.52l0.096 0.128c-0.544 0.384-1.088 0.8-1.632 1.184 0 0 0 0 0 0-0.064 0.032-0.128 0.064-0.192 0.128 0 0 0 0-0.032 0-0.032 0.032-0.096 0.064-0.16 0.128 0 0 0 0-0.032 0-0.032 0.032-0.096 0.064-0.16 0.128 0 0 0 0-0.032 0-0.224 0.16-0.448 0.32-0.672 0.512 0 0-0.032 0.032-0.064 0.032-0.032 0.032-0.064 0.032-0.128 0.064 0 0.032-0.032 0.032-0.064 0.064s-0.064 0.032-0.096 0.032c-0.032 0.032-0.064 0.064-0.096 0.096-0.032 0-0.032 0-0.032 0-0.032 0-0.064 0.032-0.096 0.064-0.032 0-0.064 0.032-0.096 0.064-0.064 0.032-0.064 0.032-0.128 0.064-0.032 0-0.064 0.032-0.096 0.064-0.032 0-0.064 0.032-0.096 0.064-0.064 0.032-0.096 0.064-0.128 0.096-0.032 0-0.064 0.032-0.096 0.032-0.064 0.032-0.128 0.096-0.192 0.16-0.032 0-0.032 0.032-0.064 0.032-0.064 0.032-0.096 0.064-0.16 0.096 0 0-0.032 0.032-0.064 0.032-0.032 0.032-0.096 0.064-0.128 0.096-0.032 0-0.064 0.032-0.064 0.032-0.224 1.472-0.256 1.472-0.32 1.504-0.032 0-0.032 0.032-0.064 0.032-0.064 0.032-0.096 0.064-0.16 0.096 0 0.032-0.032 0.032-0.064 0.064-0.064 0.032-0.096 0.064-0.16 0.096 0 0-0.032 0-0.032 0.032-0.224 0.16-0.448 0.288-0.672 0.448-0.064 0.032-0.128 0.096-0.224 0.128 0 0 0 0 0 0-0.064 0.032-0.128 0.096-0.192 0.128-0.032 0-0.032 0-0.032 0-0.064 0.032-0.128 0.096-0.192 0.128-0.032 0-0.032 0-0.032 0-0.064 0.032-0.128 0.096-0.224 0.128-6.624 4.64-13.472 9.024-20.576 13.184-0.032 0-0.032 0-0.032 0-0.064 0.032-0.128 0.064-0.192 0.096-0.032 0-0.032 0-0.064 0.032-0.064 0.032-0.128 0.064-0.192 0.096 0 0-0.032 0-0.032 0.032-0.064 0.032-0.128 0.064-0.192 0.096 0 0-0.032 0.032-0.064 0.032-0.032 0.032-0.096 0.064-0.16 0.096-0.032 0-0.032 0-0.064 0.032-0.064 0.032-0.16 0.064-0.224 0.128-0.064 0.032-0.128 0.064-0.16 0.096-0.032 0-0.064 0.032-0.096 0.032s-0.064 0.032-0.096 0.064c-0.032 0-0.096 0.032-0.128 0.064-0.032 0-0.064 0.032-0.096 0.032s0.032 0.256 0 0.256-0.032 0.032-0.064 0.032c-0.064 0.032-0.128 0.096-0.224 0.128 0 0 0 0-0.032 0-0.032 0.032-0.064 0.032-0.128 0.064 0 0 0 0 0 0-8.32 4.736-16.768 9.056-25.312 12.896l-0.224-0.448c-19.776 8.928-40.064 15.36-60.672 19.648l0.16 0.64c-3.136 0.672-6.304 0.704-9.472 1.248-8.256 1.44-16.48 2.56-24.736 3.296-2.912 0.256-5.792 0.96-8.672 1.152 0 0 0 0-0.032 0-0.096 0-0.192 0-0.288 0-0.032 0-0.096 0-0.128 0s-0.032 0-0.032 0c-0.096 0-0.16 0-0.256 0-0.032 0-0.032 0-0.064 0-0.096 0-0.16 0-0.256 0-0.064 0-0.096 0-0.128 0s-0.064 0-0.064 0c-0.064 0-0.128 0-0.192 0-0.032 0-0.064 0-0.096 0s-0.064 0-0.128 0c-0.032 0-0.064 0-0.128 0-0.032 0-0.064 0-0.128 0-0.032 0-0.064 0-0.096 0s-0.064 0-0.096 0-0.128 0-0.16 0-0.064 0-0.096 0-0.096 0-0.128 0c-0.032 0-0.064 0-0.096 0-0.064 0-0.128 0-0.16 0s-0.064 0-0.064 0c-0.064 0-0.16 0-0.224 0 0 0 0 0-0.032 0-0.064 0-0.128 0-0.192 0h-0.032c-0.064 0-0.128 0-0.192 0-0.032 0-0.032 0-0.064 0-0.064 0-0.128 0-0.192 0 0 0 0 0-0.032 0-0.064 0-0.128 0-0.192 0-0.032 0-0.032 0-0.064 0-0.128 0-0.288 0-0.448 0-0.096 0-0.16 0-0.224 0h-0.032c-3.808 0.16-7.616 0.256-11.424 0.256-0.032 0-0.032 0-0.032 0-0.064 0-0.16 0-0.224 0-0.096 0-0.16 0-0.224 0-0.032 0-0.032 0-0.032 0-0.064 0-0.128 0-0.224 0 0 0 0 0-0.032 0-0.064 0-0.128 0-0.224 0s-0.16 0-0.256 0c-0.064 0-0.096 0-0.128 0s-0.096 0-0.16 0-0.096 0-0.128 0c-0.064 0-0.128 0-0.16 0s-0.096 0-0.128 0c-0.064 0-0.096 0-0.16 0-0.032 0-0.096 0-0.128 0-0.064 0-0.096 0-0.16 0s-0.096 0-0.128 0c-0.096 0-0.192 0-0.256 0s-0.096 0-0.16 0c-0.032 0-0.096 0-0.128 0s-0.096 0-0.16 0c-0.032 0-0.064 0-0.128 0-0.032 0-0.096 0-0.128 0-0.064 0-0.096 0-0.128 0-0.064 0-0.128 0-0.16 0s-0.096 0-0.128 0c-0.192 0-0.384 0-0.608 0-0.032 0-0.064 0-0.096 0s-0.096 0-0.16 0c-0.032 0-0.064 0-0.096 0-0.064 0-0.128 0-0.192 0-0.032 0-0.064 0-0.096 0-0.064 0-0.128 0-0.192 0 0 0-0.032 0-0.064 0-0.288 0-0.608 0-0.896 0-0.032 0-0.032 0-0.064 0-0.064 0-0.128 0-0.192 0-0.032 0-0.064 0-0.064 0-0.064 0-0.16 0-0.224 0h-0.032c-0.416 0-0.8 0-1.216-0.032h-0.032c-0.064 0-0.16 0-0.224 0h0.192c-9.952-0.256-19.808-1.056-29.664-2.304-1.824-0.224-3.616-0.672-5.44-0.928-7.072-1.024-14.144-2.048-21.12-3.584l0.128-0.512c-20.832-4.576-41.024-11.392-60.416-20.352l-0.256 0.512c-4.192-1.792-8.16-4.256-12.32-6.4-4.352-2.272-8.704-4.448-12.96-6.912-1.472-0.864-3.040-1.504-4.512-2.4-44.64 27.168-96.832 43.104-152.896 43.104-162.784-0.032-294.784-132.032-294.784-294.816 0-162.752 132-294.72 294.784-294.752zM358.784 710.784c49.632 0 95.904-14.080 135.52-38.080l11.776-15.52c1.888 1.408 3.904 2.592 5.824 3.936 66.304-47.744 109.728-125.408 109.728-213.152-0.032-144.832-117.952-262.72-262.848-262.752-144.896 0.032-262.784 117.92-262.784 262.752 0 144.896 117.888 262.784 262.784 262.816zM696.736 708.768c3.008-0.352 5.984-0.928 8.96-1.376 31.808-4.992 62.72-15.52 90.88-31.776 8.32-4.8 16.416-10.208 24.096-15.872 18.656-13.696 34.88-29.6 48.864-47.008 2.688-3.328 5.344-6.656 7.84-10.112 2.88-3.968 5.6-8 8.224-12.096 2.176-3.328 4.256-6.72 6.24-10.176 11.616-20 20.672-41.28 26.688-63.456 0.704-2.624 1.216-5.312 1.856-7.968 8.608-35.872 9.664-73.504 2.592-110.496-0.832-4.384-1.728-8.768-2.784-13.12s-2.304-8.672-3.616-12.992c-1.344-4.512-2.816-8.96-4.416-13.408-5.184-14.4-11.488-28.608-19.392-42.304-4.832-8.384-10.368-16.224-16.032-23.936-1.952-2.656-3.872-5.312-5.92-7.872-5.76-7.264-11.84-14.144-18.272-20.672-0.864-0.896-1.664-1.888-2.56-2.752-15.776-15.584-33.472-29.088-52.576-40.192-1.312-0.768-2.688-1.44-4.032-2.176-7.872-4.416-15.968-8.384-24.256-11.968-2.624-1.12-5.28-2.176-7.936-3.232-30.272-11.936-62.848-18.624-96.352-18.624-32.512 0-64.672 6.432-94.944 18.208-2.624 1.024-5.248 1.984-7.84 3.104-7.136 3.040-14.016 6.624-20.864 10.272 68.352 54.016 112.384 137.408 112.416 231.232 0 93.792-43.968 177.184-112.256 231.2 25.536 13.696 53.28 23.2 82.272 27.936 3.296 0.544 6.528 1.216 9.856 1.6 10.56 1.312 21.248 2.144 32.032 2.144 10.496-0.064 20.896-0.864 31.232-2.112zM402.752 461.728c0.96 18.976 4.032 37.888 9.088 56.16l-30.848 8.544c-1.024-3.744-1.984-7.488-2.88-11.232 0 0 0 0 0-0.032 0-0.064-0.032-0.128-0.032-0.192 0 0-0.032-0.032-0.032-0.032 0-0.064-0.032-0.128-0.032-0.192 0 0 0-0.032 0-0.064-0.032-0.064-0.032-0.128-0.064-0.16 0-0.032 0-0.032 0-0.064-0.032-0.064-0.032-0.128-0.064-0.192 0 0 0-0.032 0-0.032-0.032-0.064-0.032-0.128-0.032-0.192-0.032 0-0.032-0.032-0.032-0.032-0.032-0.16-0.064-0.32-0.096-0.48 0-0.032 0-0.032-0.032-0.064 0-0.032-0.032-0.096-0.032-0.16 0-0.032 0-0.064-0.032-0.064 0-0.032 0-0.096-0.032-0.16 0-0.032 0-0.064 0-0.096 0-0.128 0-0.16 0-0.224-0.032-0.032-0.032-0.064-0.032-0.096s-0.032-0.064-0.032-0.096-0.032-0.096-0.032-0.128 0-0.064-0.032-0.096c0-0.032 0-0.064-0.032-0.128 0-0.032 0-0.064 0-0.096s-0.032-0.096-0.032-0.128c0-0.032-0.032-0.032-0.032-0.064-0.064-0.256-0.128-0.544-0.192-0.8 0 0 0 0 0 0 0-0.064-0.032-0.128-0.032-0.192 0 0 0 0 0 0-0.032-0.064-0.032-0.128-0.064-0.192 0 0 0 0 0-0.032 0-0.064-0.032-0.128-0.032-0.192 0 0 0 0 0-0.032-0.032-0.064-0.032-0.128-0.064-0.192v0c0-0.064-0.032-0.128-0.032-0.192v0c-3.328-15.424-5.376-31.008-6.176-46.56l31.968-1.824zM432.896 570.816c1.536 2.88 3.104 5.728 4.736 8.576 7.904 13.696 17.024 26.688 27.168 38.656l-24.416 20.672c-0.384-0.416-0.704-0.832-1.056-1.248-0.256-0.32-0.544-0.64-0.768-0.928 0 0 0 0 0 0-0.096-0.096-0.192-0.192-0.256-0.288-0.064-0.064-0.096-0.096-0.128-0.16-0.032 0-0.032 0-0.032 0-0.096-0.096-0.16-0.192-0.256-0.32-0.032-0.032-0.096-0.096-0.128-0.128 0 0 0 0-0.032-0.032-0.064-0.096-0.128-0.192-0.224-0.256 0 0 0-0.032-0.032-0.032-0.032-0.032-0.064-0.096-0.096-0.128-0.032 0-0.032 0-0.032-0.032-0.064-0.064-0.16-0.16-0.224-0.256 0 0-0.032-0.032-0.032-0.032-0.032-0.032-0.096-0.096-0.128-0.128 0 0 0 0-0.032-0.032-0.064-0.096-0.128-0.16-0.192-0.256 0 0-0.032-0.032-0.064-0.064s-0.064-0.064-0.096-0.128c-0.032-0.032-0.064-0.064-0.064-0.064-0.064-0.064-0.096-0.128-0.16-0.192-0.032-0.032-0.064-0.032-0.064-0.064-0.032-0.032-0.064-0.064-0.096-0.096s-0.064-0.064-0.096-0.096-0.096-0.128-0.128-0.16c-0.032-0.032-0.064-0.064-0.096-0.096s-0.064-0.064-0.096-0.096c-0.032-0.032-0.064-0.096-0.096-0.128-0.064-0.032-0.096-0.096-0.128-0.128s-0.032-0.064-0.064-0.096-0.064-0.064-0.096-0.096c-0.064-0.064-0.096-0.096-0.128-0.16-0.032-0.032-0.064-0.064-0.096-0.096s-0.064-0.064-0.096-0.096-0.032-0.064-0.064-0.096c-0.064-0.032-0.096-0.096-0.16-0.16-0.032-0.032-0.032-0.064-0.064-0.096s-0.064-0.064-0.096-0.096-0.064-0.064-0.096-0.096c-0.032-0.064-0.096-0.128-0.128-0.192-0.032-0.032-0.064-0.064-0.064-0.096-0.032-0.032-0.096-0.064-0.128-0.128 0-0.032-0.032-0.032-0.064-0.064-0.032-0.064-0.096-0.128-0.16-0.192 0-0.032-0.032-0.064-0.064-0.064-0.032-0.032-0.064-0.096-0.096-0.128s-0.032-0.032-0.064-0.064c-0.064-0.064-0.096-0.128-0.16-0.192-0.032-0.032-0.032-0.064-0.064-0.064-0.032-0.064-0.064-0.096-0.128-0.16 0 0-0.032-0.032-0.032-0.064-0.064-0.064-0.128-0.128-0.16-0.192-0.032 0-0.032-0.032-0.064-0.064-0.032-0.064-0.096-0.096-0.128-0.16 0-0.032-0.032-0.032-0.032-0.064-0.064-0.064-0.128-0.128-0.16-0.192-0.032 0-0.064-0.032-0.064-0.064-0.064-0.032-0.096-0.096-0.128-0.16-0.032 0-0.032-0.032-0.064-0.032-0.032-0.064-0.096-0.128-0.16-0.224 0 0-0.032-0.032-0.032-0.064-0.064-0.064-0.096-0.096-0.16-0.16 0 0 0-0.032-0.032-0.032-0.032-0.064-0.096-0.128-0.16-0.192 0 0-0.032-0.032-0.032-0.064-0.064-0.064-0.128-0.128-0.16-0.192-0.032 0-0.032 0-0.032 0-0.064-0.064-0.096-0.128-0.16-0.224-0.032 0-0.032-0.032-0.032-0.032-0.128-0.128-0.256-0.288-0.352-0.448-0.032 0-0.032-0.032-0.064-0.032-0.032-0.064-0.096-0.16-0.16-0.224s-0.128-0.128-0.192-0.224c0 0 0-0.032-0.032-0.032-0.032-0.064-0.096-0.16-0.16-0.224 0 0 0 0 0 0-0.064-0.064-0.128-0.128-0.192-0.224 0 0 0-0.032-0.032-0.032-0.032-0.064-0.096-0.16-0.16-0.224 0 0 0 0 0 0-0.064-0.064-0.128-0.128-0.192-0.224 0 0 0 0-0.032-0.032-0.032-0.064-0.096-0.16-0.16-0.224s-0.128-0.16-0.192-0.224c0 0 0 0-0.032-0.032-0.032-0.064-0.096-0.16-0.16-0.224s-0.128-0.16-0.192-0.224c0 0 0 0 0-0.032-0.064-0.064-0.128-0.16-0.192-0.224 0 0 0 0 0 0-0.064-0.064-0.128-0.16-0.192-0.224-0.064-0.096-0.128-0.16-0.192-0.256s-0.128-0.16-0.192-0.256-0.128-0.16-0.192-0.256c-0.128-0.16-0.256-0.32-0.384-0.512s-0.256-0.32-0.384-0.512v0c-0.128-0.16-0.256-0.32-0.384-0.512s-0.256-0.32-0.352-0.512c-0.032 0-0.032 0-0.032 0-0.096-0.16-0.224-0.352-0.352-0.512 0 0 0 0 0 0-0.128-0.16-0.256-0.32-0.384-0.512-4.16-5.76-8.128-11.68-11.904-17.824-0.48-0.704-0.896-1.44-1.344-2.144-0.128-0.192-0.224-0.352-0.32-0.544h-0.032c-0.032-0.096-0.096-0.192-0.16-0.288s-0.096-0.16-0.16-0.256c0 0 0 0 0 0-0.064-0.064-0.096-0.16-0.16-0.256s-0.128-0.16-0.16-0.256h-0.032c-0.032-0.096-0.096-0.192-0.16-0.288s-0.096-0.16-0.16-0.256-0.096-0.192-0.16-0.256c0 0 0 0 0-0.032-0.064-0.064-0.128-0.16-0.16-0.256 0 0 0 0 0 0-0.064-0.064-0.128-0.16-0.16-0.256-0.032 0-0.032-0.032-0.032-0.032-0.064-0.096-0.096-0.16-0.16-0.256v0c-0.032-0.064-0.096-0.16-0.16-0.256 0 0 0-0.032 0-0.032-0.064-0.064-0.128-0.16-0.16-0.256-0.064-0.064-0.096-0.16-0.16-0.256 0 0 0-0.032-0.032-0.032-0.032-0.096-0.096-0.16-0.128-0.256-0.064-0.096-0.128-0.16-0.16-0.256 0 0-0.032-0.032-0.032-0.064-0.064-0.064-0.096-0.16-0.16-0.224v0c-0.032-0.064-0.096-0.16-0.128-0.256-0.032 0-0.032-0.032-0.032-0.032-0.064-0.064-0.096-0.16-0.16-0.256-0.032-0.064-0.064-0.128-0.128-0.192-1.792-3.136-3.52-6.24-5.184-9.408l28.64-15.584zM421.376 349.984c-7.072 17.664-12.256 36.128-15.36 54.88l-31.552-5.248c2.72-16.256 6.784-32.256 12.128-47.808 0.032-0.096 0.064-0.128 0.064-0.224 0.032 0 0.032 0 0.032 0 0-0.064 0.032-0.128 0.064-0.224 0.128-0.352 0.256-0.672 0.352-0.992 0-0.032 0-0.032 0.032-0.032 0-0.064 0.032-0.128 0.064-0.192v-0.032c0.032-0.064 0.032-0.128 0.064-0.16 0-0.032 0-0.064 0.032-0.064 0-0.064 0.032-0.128 0.032-0.16 0.032-0.032 0.032-0.064 0.032-0.064 0.032-0.064 0.032-0.128 0.064-0.192 0.096-0.256 0.192-0.544 0.288-0.768 0-0.032 0-0.032 0-0.064 0.032-0.032 0.064-0.096 0.064-0.128s0.032-0.064 0.032-0.096 0.032-0.096 0.064-0.128c0-0.032 0-0.064 0.032-0.096 0-0.032 0.032-0.096 0.032-0.128s0.032-0.064 0.032-0.096c0.032-0.032 0.032-0.096 0.064-0.128 0-0.032 0-0.064 0.032-0.096 0-0.032 0.032-0.096 0.032-0.128 0.032-0.032 0.032-0.064 0.032-0.096 0.032-0.032 0.032-0.096 0.064-0.128 0-0.032 0-0.064 0.032-0.096 0.032-0.096 0.032-0.16 0.064-0.224 0.032-0.032 0.032-0.096 0.064-0.128 0-0.032 0-0.064 0.032-0.096 0-0.064 0.032-0.096 0.032-0.128 0.032-0.032 0.032-0.064 0.064-0.096 0-0.064 0-0.096 0.032-0.128 0-0.032 0.032-0.096 0.032-0.096 0.032-0.064 0.032-0.096 0.064-0.16 0-0.032 0-0.032 0.032-0.064 0-0.064 0.032-0.096 0.032-0.16 0.032-0.032 0.032-0.064 0.032-0.096 0.032-0.032 0.032-0.096 0.064-0.128 0-0.032 0.032-0.064 0.032-0.096 0.032-0.032 0.032-0.096 0.064-0.16 0-0.032 0-0.032 0.032-0.064 0-0.064 0.032-0.16 0.064-0.224 0 0 0 0 0-0.032 0.032-0.064 0.064-0.128 0.096-0.192 0-0.032 0-0.032 0-0.064 0.032-0.064 0.064-0.128 0.096-0.192v-0.032c0.032-0.064 0.064-0.128 0.064-0.192 0.032 0 0.032-0.032 0.032-0.064 0.032-0.032 0.032-0.096 0.064-0.16 0-0.032 0-0.032 0.032-0.064 0-0.064 0.032-0.128 0.064-0.192v-0.032c0.032-0.064 0.064-0.16 0.096-0.224 0.128-0.32 0.256-0.64 0.352-0.928 0.032-0.096 0.064-0.16 0.096-0.224v-0.032c0.032-0.064 0.064-0.128 0.096-0.224 0.576-1.472 1.152-2.976 1.76-4.448l29.568 12.032zM448.16 299.744l-26.464-18.016c4-5.856 8.224-11.584 12.672-17.184h0.032c0.032-0.064 0.096-0.128 0.128-0.192 0 0 0 0 0.032 0 0.032-0.064 0.064-0.128 0.128-0.192 0 0 0.032 0 0.032-0.032 0.032-0.032 0.064-0.096 0.128-0.16 0 0 0-0.032 0.032-0.032 0.032-0.064 0.064-0.096 0.128-0.16v-0.032c0.16-0.192 0.32-0.384 0.48-0.576 0 0 0-0.032 0.032-0.032 0.032-0.064 0.064-0.096 0.128-0.16 0-0.032 0.032-0.032 0.032-0.064 0.032-0.032 0.064-0.096 0.128-0.128 0-0.032 0.032-0.064 0.032-0.064 0.032-0.032 0.064-0.096 0.096-0.128s0.064-0.032 0.064-0.064c0.032-0.064 0.064-0.096 0.096-0.128s0.032-0.032 0.064-0.064 0.064-0.096 0.096-0.128 0.032-0.032 0.064-0.064 0.064-0.096 0.096-0.128c0 0 0.032-0.032 0.064-0.064s0.064-0.064 0.096-0.128c0-0.032 0.032-0.032 0.064-0.064 0.032-0.064 0.064-0.096 0.096-0.16 0.032 0 0.032 0 0.032-0.032 0.064-0.064 0.128-0.128 0.16-0.192 0.032-0.032 0.064-0.064 0.096-0.096 0-0.032 0.032-0.064 0.064-0.096 0.032 0 0.064-0.064 0.096-0.096 0-0.032 0.032-0.032 0.064-0.064s0.032-0.096 0.064-0.128 0.064-0.032 0.064-0.064c0.032-0.032 0.064-0.064 0.096-0.128 0.032 0 0.032-0.032 0.064-0.064s0.064-0.064 0.096-0.096 0.032-0.064 0.064-0.096 0.064-0.064 0.096-0.096c0-0.032 0.032-0.064 0.064-0.064 0-0.064 0.064-0.096 0.096-0.128 0-0.032 0.032-0.032 0.032-0.064 0.032-0.032 0.064-0.096 0.128-0.128 0.192-0.256 0.384-0.48 0.576-0.672 0.032-0.064 0.096-0.128 0.128-0.16 0-0.032 0.032-0.032 0.032-0.032 0.032-0.064 0.064-0.096 0.128-0.16 0 0 0-0.032 0.032-0.032 0.032-0.032 0.064-0.096 0.096-0.128s0.032-0.032 0.032-0.064c0.064-0.032 0.096-0.096 0.128-0.128l0.032-0.032c0.032-0.032 0.096-0.096 0.128-0.16 7.392-8.832 15.392-17.312 23.936-25.312l21.92 23.328c-13.984 13.088-26.432 27.648-37.12 43.328z" />
<glyph unicode="&#xe914;" glyph-name="about" d="M895.968 383.296c0 0.192 0.032 0.448 0.032 0.704 0 142.304-77.6 266.272-192.64 332.608-6.528 100.096-89.568 179.392-191.36 179.392s-184.832-79.296-191.36-179.392c-115.040-66.336-192.64-190.304-192.64-332.608 0-0.256 0.032-0.512 0.032-0.704-83.264-55.808-110.272-167.264-59.424-255.296 35.552-61.6 100.096-96.032 166.464-96.032 28.544 0 57.344 6.816 84.416 20.16 56.64-32.928 122.272-52.128 192.512-52.128s135.872 19.2 192.544 52.128c27.072-13.344 55.84-20.16 84.384-20.16 66.368 0 130.912 34.432 166.496 96.032 50.816 88.032 23.808 199.488-59.456 255.296zM788.928 63.968c-27.904 0-55.488 7.424-79.808 21.472-76.416 44.128-102.688 142.144-58.56 218.56 28.512 49.344 81.664 80.032 138.752 80.032 27.904 0 55.488-7.424 79.808-21.472 76.416-44.128 102.688-142.144 58.56-218.56-28.48-49.344-81.664-80.032-138.752-80.032zM154.88 362.56c24.32 14.016 51.936 21.472 79.808 21.472 57.088 0 110.24-30.688 138.752-80.032 44.096-76.416 17.824-174.432-58.56-218.56-24.32-14.016-51.936-21.472-79.808-21.472-57.088 0-110.272 30.656-138.752 80.032-44.128 76.416-17.824 174.432 58.56 218.56zM401.152 320c-35.552 61.6-100.096 96.032-166.496 96.032-24.832 0-49.888-4.896-73.824-14.944 5.664 116.832 68.224 218.784 160.832 278.592 12.032-94.528 92.544-167.68 190.336-167.68s178.304 73.152 190.304 167.68c92.608-59.808 155.2-161.76 160.832-278.592-23.936 10.016-48.992 14.944-73.824 14.944-66.368 0-130.912-34.432-166.496-96.032-48.896-84.672-25.792-191.040 50.112-248.672-48.256-24.992-102.912-39.328-160.928-39.328s-112.672 14.336-160.96 39.328c75.904 57.632 98.976 164 50.112 248.672zM512 864c88.224 0 160-71.776 160-160s-71.776-160-160-160-160 71.776-160 160 71.776 160 160 160z" />
<glyph unicode="&#xe915;" glyph-name="team" d="M864 576c52.8 0 96 43.2 96 96v128c0 52.8-43.2 96-96 96h-128c-52.8 0-96-43.2-96-96v-96h-256v96c0 52.8-43.2 96-96 96h-128c-52.8 0-96-43.2-96-96v-128c0-52.8 43.2-96 96-96h96v-256h-96c-52.8 0-96-43.2-96-96v-128c0-52.8 43.2-96 96-96h128c52.8 0 96 43.2 96 96v96h256v-96c0-52.8 43.2-96 96-96h128c52.8 0 96 43.2 96 96v128c0 52.8-43.2 96-96 96h-96v256h96zM672 800c0 35.296 28.704 64 64 64h128c35.296 0 64-28.704 64-64v-128c0-35.296-28.704-64-64-64h-96c0 52.8-43.2 96-96 96v96zM736 288c0-35.296-28.704-64-64-64h-320c-35.296 0-64 28.704-64 64v320c0 35.296 28.704 64 64 64h320c35.296 0 64-28.704 64-64v-320zM160 608c-35.296 0-64 28.704-64 64v128c0 35.296 28.704 64 64 64h128c35.296 0 64-28.704 64-64v-96c-52.8 0-96-43.2-96-96h-96zM352 96c0-35.296-28.704-64-64-64h-128c-35.296 0-64 28.704-64 64v128c0 35.296 28.704 64 64 64h96c0-52.8 43.2-96 96-96v-96zM864 288c35.296 0 64-28.704 64-64v-128c0-35.296-28.704-64-64-64h-128c-35.296 0-64 28.704-64 64v96c52.8 0 96 43.2 96 96h96z" />
<glyph unicode="&#xe916;" glyph-name="projects" d="M928 832h-832c-52.8 0-96-43.2-96-96v-576c0-52.8 43.2-96 96-96h832c52.8 0 96 43.2 96 96v576c0 52.8-43.2 96-96 96zM992 160c0-35.296-28.704-64-64-64h-832c-35.296 0-64 28.704-64 64v576c0 35.296 28.704 64 64 64h320c35.296 0 64-28.704 64-64 0-70.592 57.408-128 128-128h320c35.296 0 64-28.704 64-64v-384zM928 800c35.296 0 64-28.704 64-64v-121.056c-17.056 15.392-39.36 25.056-64 25.056h-320c-52.8 0-96 43.2-96 96 0 24.64-9.664 46.976-25.056 64h441.056z" />
<glyph unicode="&#xe917;" glyph-name="blog" d="M799.968 960c-52.8 0.032-139.2 0-192 0h-384c-52.8 0-95.968-43.168-95.968-95.968v-832c0-52.8 43.168-96.032 95.968-96.032h576c52.8 0 96.032 43.232 96.032 96.032v640c0 52.8 0 139.2 0 191.968 0 52.8-43.232 96-96.032 96zM864 848v-815.968c0-35.296-28.736-64.032-64.032-64.032h-576c-35.296 0-63.968 28.736-63.968 64.032v832c0 35.296 28.672 63.968 63.968 63.968h576c35.296 0 64.032-28.704 64.032-64v-16zM256 800v-192h512v192h-512zM736 768v-128h-448v128h448zM256 512h512v-32h-512v32zM256 384h512v-32h-512v32zM256 256h512v-32h-512v32zM256 128h256v-32h-256v32z" />
<glyph unicode="&#xe918;" glyph-name="about_nav" d="M927.2 400.064c-5.44 141.184-81.312 264.352-193.664 335.424-15.424 108.608-108.768 192.512-221.536 192.512s-206.112-83.904-221.536-192.512c-112.352-71.104-188.224-194.24-193.664-335.424-86.304-67.648-112.288-190.4-55.936-288.064 39.904-69.088 114.304-112.032 194.176-112.032 28.48 0 56.672 5.664 83.104 16.256 57.952-30.656 123.872-48.224 193.856-48.224s135.904 17.568 193.856 48.224c26.4-10.592 54.592-16.256 83.072-16.256 79.872 0 154.304 42.944 194.208 112.032 56.352 97.664 30.4 220.416-55.936 288.064zM927.68 144c-28.512-49.344-81.696-80.032-138.784-80.032-27.872 0-55.456 7.424-79.776 21.472-36.992 21.376-63.456 55.872-74.56 97.152-11.072 41.28-5.376 84.416 16 121.408 28.512 49.344 81.696 80.032 138.784 80.032 27.872 0 55.456-7.424 79.776-21.472 36.992-21.376 63.456-55.872 74.56-97.152 11.072-41.28 5.376-84.416-16-121.408zM96.32 144c-44.096 76.416-17.856 174.432 58.56 218.56 24.32 14.016 51.904 21.472 79.776 21.472 57.088 0 110.272-30.688 138.784-80.032 44.096-76.416 17.856-174.432-58.56-218.56-24.32-14.016-51.904-21.472-79.808-21.472-57.088 0-110.272 30.656-138.752 80.032zM428.864 336c-39.904 69.088-114.336 112.032-194.208 112.032-24 0-47.648-4.384-70.368-11.936 13.408 89.728 60.512 168.448 128.32 222.688 20.96-101.92 111.392-178.784 219.392-178.784s198.432 76.864 219.392 178.784c67.808-54.24 114.912-132.96 128.32-222.688-22.72 7.552-46.368 11.936-70.368 11.936-79.872 0-154.304-42.944-194.208-112.032-54.016-93.568-32.64-210.272 45.184-279.424-39.808-15.68-83.008-24.576-128.32-24.576s-88.512 8.896-128.32 24.576c77.792 69.12 99.2 185.888 45.184 279.424zM512 864c88.224 0 160-71.776 160-160s-71.776-160-160-160-160 71.776-160 160 71.776 160 160 160z" />
<glyph unicode="&#xe919;" glyph-name="team_nav" d="M864 576c52.8 0 96 43.2 96 96v128c0 52.8-43.2 96-96 96h-128c-52.8 0-96-43.2-96-96v-96h-256v96c0 52.8-43.2 96-96 96h-128c-52.8 0-96-43.2-96-96v-128c0-52.8 43.2-96 96-96h96v-256h-96c-52.8 0-96-43.2-96-96v-128c0-52.8 43.2-96 96-96h128c52.8 0 96 43.2 96 96v96h256v-96c0-52.8 43.2-96 96-96h128c52.8 0 96 43.2 96 96v128c0 52.8-43.2 96-96 96h-96v256h96zM704 608v-320c0-17.344-14.656-32-32-32h-320c-17.344 0-32 14.656-32 32v320c0 17.344 14.656 32 32 32h320c17.344 0 32-14.656 32-32zM896 224v-128c0-17.344-14.656-32-32-32h-128c-17.344 0-32 14.656-32 32v101.952c27.072 9.696 48.384 31.008 58.048 58.048h101.952c17.344 0 32-14.656 32-32zM288 64h-128c-17.344 0-32 14.656-32 32v128c0 17.344 14.656 32 32 32h101.952c9.696-27.072 31.008-48.384 58.048-58.048v-101.952c0-17.344-14.656-32-32-32zM128 672v128c0 17.344 14.656 32 32 32h128c17.344 0 32-14.656 32-32v-101.952c-27.072-9.664-48.384-30.976-58.048-58.048h-101.952c-17.344 0-32 14.656-32 32zM736 832h128c17.344 0 32-14.656 32-32v-128c0-17.344-14.656-32-32-32h-101.952c-9.664 27.072-30.976 48.384-58.048 58.048v101.952c0 17.344 14.656 32 32 32z" />
<glyph unicode="&#xe91a;" glyph-name="projects_nav" d="M928 832h-832c-52.8 0-96-43.2-96-96v-576c0-52.8 43.2-96 96-96h832c52.8 0 96 43.2 96 96v576c0 52.8-43.2 96-96 96zM960 160c0-17.344-14.656-32-32-32h-832c-17.344 0-32 14.656-32 32v576c0 17.344 14.656 32 32 32h320c17.344 0 32-14.656 32-32 0-88.224 71.776-160 160-160h320c17.344 0 32-14.656 32-32v-384zM928 640h-320c-52.8 0-96 43.2-96 96 0 11.264-2.304 21.952-5.952 32h421.952c17.344 0 32-14.656 32-32v-101.952c-10.048 3.648-20.736 5.952-32 5.952z" />
<glyph unicode="&#xe91b;" glyph-name="blog_nav" d="M799.968 960c-52.8 0.032-139.2 0-192 0h-384c-52.8 0-95.968-43.168-95.968-95.968v-832c0-52.8 43.168-96.032 95.968-96.032h576c52.8 0 96.032 43.232 96.032 96.032v640c0 52.8 0 139.2 0 191.968 0 52.8-43.232 96-96.032 96zM832 672.032v-640c0-17.344-14.688-32.032-32.032-32.032h-576c-17.344 0-31.968 14.688-31.968 32.032v832c0 17.344 14.624 31.968 31.968 31.968h576c17.344 0 32.032-14.656 32.032-32v-191.968zM256 608h512v192h-512v-192zM320 736h384v-64h-384v64zM256 512h512v-64h-512v64zM256 384h512v-64h-512v64zM256 256h512v-64h-512v64zM256 128h256v-64h-256v64z" />
<glyph unicode="&#xe91c;" glyph-name="system" d="M335.84 415.968v0c39.968 0 77.152-21.44 97.088-56 14.976-25.92 18.944-56.096 11.2-84.992-7.712-28.896-26.24-53.056-52.16-68-17.024-9.824-36.32-15.040-55.84-15.040-39.936 0-77.184 21.472-97.12 56-14.976 25.92-18.944 56.096-11.2 84.992s26.272 53.056 52.192 68.032c17.024 9.824 36.32 15.008 55.84 15.008zM335.84 447.968c-24.448 0-49.184-6.208-71.84-19.296-68.864-39.744-92.48-127.808-52.704-196.672 26.688-46.176 75.104-72 124.832-72 24.448 0 49.184 6.208 71.84 19.328 68.864 39.744 92.448 127.84 52.672 196.672-26.624 46.144-75.040 71.968-124.8 71.968v0zM382.848 53.472c-3.36 0-6.688 1.056-9.44 3.072-3.616 2.656-5.984 6.688-6.464 11.168l-2.208 11.104c-18.976-2.4-38.304-2.4-57.44 0.064l-2.432-12.16c-0.8-4.16-3.328-7.968-6.848-10.304-3.488-2.368-7.808-3.424-12.064-2.496-32.864 6.624-63.616 19.328-91.424 37.856-3.68 2.464-6.176 6.336-6.912 10.688s0.416 8.832 3.104 12.352l6.4 9.664c-15.264 11.776-28.832 25.376-40.64 40.672l-10.464-7.040c-7.264-4.832-17.12-2.976-22.080 4.288-3.936 5.76-6.624 9.696-9.024 13.888-13.824 23.968-23.584 50.080-29.088 77.664-1.728 8.672 3.872 17.088 12.576 18.816l12.448 2.496c-2.432 19.072-2.4 38.304 0.064 57.44l-12.416 2.496c-4.16 0.832-7.84 3.296-10.176 6.816s-3.232 7.84-2.368 12c6.56 32.8 19.296 63.584 37.856 91.456 2.432 3.68 6.24 6.144 10.592 6.912 4.32 0.768 8.768-0.32 12.32-2.976l9.76-6.528c11.744 15.232 25.376 28.8 40.672 40.576l-6.976 10.464c-3.648 7.232-2.336 17.792 4.384 22.24l2.848 1.92c3.552 2.4 7.168 4.8 10.944 6.976 4.352 2.528 8.8 4.672 13.248 6.848 0.32 0.128 3.136 1.504 3.392 1.632l30.496 12.64c10.816 3.616 20.576 5.984 30.432 7.968 8.384 1.824 16.832-3.712 18.752-12.192l2.56-12.8c19.008 2.432 38.24 2.4 57.44-0.064l2.464 12.448c0.8 4.16 3.296 7.84 6.816 10.176s7.808 3.232 12 2.368c32.8-6.56 63.616-19.296 91.488-37.856 3.808-2.528 6.336-6.528 7.008-11.008 0.672-4.512-0.672-9.056-3.552-12.544l-6.048-9.152c15.232-11.776 28.832-25.376 40.672-40.704l10.432 7.040c3.488 2.336 7.808 3.264 12.032 2.4 4.16-0.832 7.872-3.264 10.208-6.784 4.16-6.176 6.592-9.856 8.864-13.76 13.856-24 23.616-50.112 29.12-77.696 1.728-8.672-3.872-17.088-12.576-18.816l-12.448-2.496c2.432-19.072 2.4-38.272-0.064-57.44l12.416-2.496c8.672-1.728 14.304-10.144 12.576-18.816-6.56-32.832-19.328-63.616-37.856-91.456-2.656-4-6.944-6.56-11.712-7.040-4.736-0.352-9.504 1.216-12.864 4.576l-8.032 5.216c-11.776-15.264-25.408-28.896-40.736-40.736l7.008-10.464c4.832-7.296 2.976-17.12-4.288-22.080-5.472-3.744-9.568-6.56-13.952-9.088-23.904-13.792-50.048-23.584-77.696-29.088-1.024-0.224-2.080-0.32-3.104-0.32zM393.216 99.008l2.048-10.176c17.952 4.896 35.040 11.936 50.976 20.96l-6.56 9.824c-2.336 3.52-3.232 7.84-2.368 12 0.832 4.16 3.296 7.808 6.816 10.176 21.632 14.4 39.808 32.608 54.080 54.016 2.432 3.68 6.272 6.176 10.624 6.912 4.352 0.8 8.768-0.32 12.32-2.976l8.864-5.888c9.088 16 16.096 33.024 20.992 50.784l-11.328 2.272c-8.672 1.728-14.304 10.144-12.576 18.816 5.088 25.472 5.12 51.232 0.064 76.48-0.832 4.16 0.032 8.48 2.368 12s6.016 5.984 10.176 6.816l11.328 2.272c-4.864 17.888-11.872 34.944-20.928 50.912l-9.76-6.528c-0.576-0.384-1.152-0.736-1.792-1.056-7.648-3.808-16.832-0.992-21.024 6.272-14.336 21.28-32.352 39.2-53.504 53.28-3.52 2.336-5.984 6.016-6.816 10.176s0.032 8.48 2.368 12l6.4 9.6c-16.032 9.088-33.024 16.128-50.816 20.992l-2.24-11.328c-0.8-4.16-3.296-7.84-6.816-10.176s-7.84-3.2-12.032-2.368c-24.576 4.896-50.016 5.056-74.368 0.48-0.64-0.224-1.248-0.384-1.888-0.512-8.896-1.984-17.088 3.584-18.944 12.192-0.032 0.096-0.032 0.224-0.064 0.32l-2.304 11.584c-3.328-0.896-6.688-1.888-10.016-2.976l-29.248-12.16c-4.736-2.336-8.256-4.032-11.488-5.856l6.592-9.824c2.336-3.52 3.232-7.872 2.368-12-0.832-4.16-3.296-7.84-6.816-10.176-21.664-14.4-39.84-32.544-54.112-53.984-4.544-6.752-13.312-9.024-20.512-5.44l-11.264 7.424c-9.12-16.032-16.16-33.056-21.056-50.848l11.328-2.272c4.16-0.832 7.84-3.296 10.176-6.816s3.232-7.84 2.368-12c-5.088-25.472-5.12-51.232-0.064-76.48 0.832-4.16-0.032-8.48-2.368-12s-6.016-5.984-10.176-6.816l-11.328-2.272c4.864-17.888 11.872-34.944 20.896-50.88l9.856 6.56c0.544 0.352 1.088 0.672 1.696 0.992 7.616 3.84 16.832 1.024 21.056-6.272 13.888-20.576 31.168-38.016 51.456-51.904 0.704-0.32 1.44-0.704 2.112-1.184 7.328-4.896 9.44-14.656 4.544-22.016l-6.624-9.952c16-9.088 32.992-16.096 50.784-21.024l2.304 11.584c1.696 8.448 10.112 14.016 18.112 12.672 1.216-0.192 2.4-0.512 3.488-0.96 23.712-4.352 48.16-4.32 71.584 0.064 1.12 0.384 2.272 0.64 3.456 0.768 9.12 1.12 16.704-5.312 17.6-14.080zM719.872 716.352v0c32.928 0 63.616-17.696 80.064-46.176 25.472-44.096 10.304-100.672-33.792-126.112-14.016-8.096-29.984-12.384-46.016-12.384-32.96 0-63.648 17.696-80.096 46.176-12.352 21.344-15.616 46.24-9.248 70.048 6.4 23.84 21.664 43.744 43.040 56.064 14.016 8.096 29.952 12.384 46.048 12.384zM719.872 748.352c-21.088 0-42.464-5.376-62.048-16.672-59.456-34.336-79.84-110.368-45.504-169.856 23.040-39.904 64.832-62.176 107.808-62.176 21.056 0 42.432 5.376 62.016 16.672 59.456 34.336 79.808 110.4 45.504 169.856-23.008 39.872-64.8 62.176-107.776 62.176v0zM760.448 405.504c-3.648 0-7.264 1.28-10.144 3.616-3.68 3.040-5.856 7.584-5.856 12.384l-1.184 5.664c-15.328-1.792-30.88-1.792-46.304 0.032l-1.696-8.544c-0.8-4.16-3.328-7.936-6.848-10.304-3.52-2.336-7.872-3.296-12.064-2.496-28.672 5.792-55.488 16.864-79.744 33.024-3.616 2.4-6.080 6.176-6.88 10.464-0.768 4.288 0.256 8.704 2.784 12.224l4.64 6.912c-12.096 9.536-23.008 20.48-32.608 32.64l-7.36-4.928c-7.296-4.832-17.184-2.944-22.112 4.352-3.552 5.248-5.824 8.544-7.84 12.032-12.096 20.992-20.64 43.776-25.376 67.744-1.728 8.672 3.904 17.088 12.576 18.816l8.736 1.76c-1.792 15.328-1.792 30.752 0.064 46.112l-8.704 1.76c-8.672 1.728-14.272 10.144-12.576 18.816 5.696 28.608 16.8 55.456 32.992 79.776 2.336 3.52 6.016 6.016 10.144 6.816 4.192 0.736 8.512 0 12.032-2.368l7.392-4.928c9.568 12.096 20.48 22.976 32.672 32.576l-4.896 7.328c-3.584 7.232-2.304 17.792 4.416 22.24 5.536 3.744 8.704 5.856 12.096 7.808 3.616 2.080 7.424 4 11.264 5.856 0.32 0.128 3.008 1.44 3.328 1.568l26.272 10.944c9.568 3.2 18.080 5.28 26.688 6.976 8.288 1.824 16.608-3.52 18.656-11.808l1.92-9.504c15.264 1.76 30.72 1.728 46.080-0.032l1.76 8.736c0.8 4.16 3.296 7.84 6.816 10.176s7.808 3.232 12 2.368c28.672-5.728 55.488-16.832 79.84-33.024 3.968-2.656 6.56-6.976 7.040-11.744 0.512-4.768-1.184-9.504-4.608-12.896l-3.136-4.832c12.16-9.6 23.136-20.576 32.768-32.8l7.328 4.96c3.488 2.368 7.84 3.328 12.064 2.4 4.192-0.832 7.872-3.296 10.208-6.816 3.68-5.504 5.76-8.608 7.648-11.872 12.128-21.088 20.672-43.872 25.44-67.84 1.728-8.672-3.904-17.088-12.576-18.816l-8.768-1.76c1.824-15.328 1.824-30.72-0.032-46.112l8.736-1.76c8.672-1.728 14.24-10.144 12.544-18.816-5.728-28.64-16.8-55.456-32.992-79.776-3.168-4.768-8.512-7.392-14.336-7.104-3.2 0.192-6.208 1.376-8.672 3.264l-6.56 4.352c-9.568-12.096-20.48-23.008-32.64-32.576l4.896-7.36c4.864-7.328 2.944-17.184-4.32-22.112-5.184-3.52-8.608-5.856-12.224-7.936-20.8-12-43.584-20.544-67.68-25.344-1.024-0.192-2.080-0.288-3.104-0.288zM771.68 445.568l0.992-4.672c13.792 3.936 26.976 9.344 39.36 16.16l-4.352 6.528c-2.336 3.52-3.232 7.84-2.368 12 0.832 4.16 3.296 7.84 6.816 10.176 18.4 12.256 33.952 27.776 46.080 46.048 2.432 3.648 6.24 6.144 10.592 6.912 4.288 0.768 8.768-0.32 12.32-2.944l5.632-3.744c6.848 12.384 12.256 25.44 16.16 39.040l-7.456 1.504c-8.672 1.728-14.24 10.144-12.544 18.816 4.352 21.76 4.352 43.68 0.032 65.184-0.832 4.16 0.032 8.48 2.368 12s6.016 5.984 10.176 6.816l7.488 1.504c-3.904 13.664-9.28 26.784-16.096 39.168l-6.4-4.288c-0.608-0.384-1.184-0.736-1.856-1.088-7.584-3.744-16.8-0.928-20.992 6.272-12.224 18.080-27.52 33.312-45.536 45.312-3.52 2.336-5.984 6.016-6.816 10.176s0.032 8.48 2.368 12l4.224 6.336c-12.416 6.816-25.472 12.224-39.072 16.16l-1.504-7.456c-0.8-4.16-3.296-7.84-6.816-10.176-3.52-2.4-7.904-3.232-12-2.368-20.864 4.16-42.496 4.32-63.232 0.448-0.448-0.128-0.896-0.288-1.376-0.384-8.704-1.984-16.928 3.008-19.136 11.36v0c0 0-0.032 0-0.032 0.032-0.032 0.096-0.032 0.224-0.064 0.352-0.096 0.352-0.16 0.704-0.224 1.056l-1.472 7.328c-2.112-0.608-4.224-1.216-6.272-1.92l-25.216-10.496c-3.072-1.504-5.472-2.688-7.616-3.808l4.384-6.496c2.336-3.52 3.232-7.872 2.368-12-0.832-4.16-3.296-7.84-6.848-10.176-18.4-12.256-33.952-27.744-46.080-46.016-3.712-5.632-10.464-8.32-17.216-6.656-1.76 0.448-3.488 1.216-5.024 2.208l-6.24 4.16c-6.88-12.384-12.288-25.44-16.192-39.040l7.424-1.472c8.672-1.728 14.272-10.144 12.576-18.816-4.352-21.696-4.352-43.648-0.064-65.216 1.728-8.672-3.872-17.088-12.576-18.816l-7.456-1.504c3.872-13.664 9.28-26.752 16.064-39.136l6.496 4.352c1.248 0.832 2.624 1.504 4.128 1.984v0c0.032 0 0.064 0.032 0.096 0.032h0.096c0 0-0.16 0.032 0.064 0v0c0.032 0 0.032 0 0.064 0v0c0.032 0 0.032 0 0.064 0v0c0.032 0 0.032 0 0.064 0v0c0.032 0 0.064 0.032 0.096 0.032h0.032c0.032 0 0.192-0.064 0.096 0.032 0.032 0 0.032 0 0.064 0v0c0.032 0 0.032 0.032 0.064 0 0.032 0 0.032 0 0.064 0 0 0 0 0.032 0.064 0 7.040 1.728 14.208-1.44 17.728-7.456 11.776-17.44 26.464-32.256 43.68-44.064 0.672-0.32 1.312-0.672 1.952-1.088 7.328-4.896 9.44-14.688 4.544-22.048l-4.416-6.624c12.384-6.816 25.44-12.224 39.072-16.16l1.536 7.712c1.664 8.48 9.888 14.016 18.24 12.672 1.088-0.192 2.176-0.48 3.2-0.864 19.84-3.616 40.192-3.68 59.808-0.096 9.6 3.808 21.824-3.872 21.824-14.784z" />
<glyph unicode="&#xe91d;" glyph-name="privacy" d="M336 576c0 61.632 0 58.112 0 112 0 61.856 50.144 112 112 112h128c61.856 0 112-50.144 112-112 0-53.888 0-50.368 0-112h32v112c0 79.392-64.608 144-144 144h-128c-79.392 0-144-64.608-144-144v-112h32zM688 576h-352c0-9.12 0-19.616 0-32h352c0 12.384 0 22.88 0 32zM736 576h-16v-32h16c35.296 0 64-28.704 64-64v-320c0-35.296-28.704-64-64-64h-448c-35.296 0-64 28.704-64 64v320c0 35.296 28.704 64 64 64h16v32h-16c-52.8 0-96-43.2-96-96v-320c0-52.8 43.2-96 96-96h448c52.8 0 96 43.2 96 96v320c0 52.8-43.2 96-96 96zM336 544c0 12.384 0 22.88 0 32h-32v-32h32zM688 576c0-9.12 0-19.616 0-32h32v32h-32zM512 480c-52.928 0-96-43.072-96-96 0-28.256 12.512-53.44 32-71.040v-152.96h128v152.96c19.488 17.568 32 42.752 32 71.040 0 52.928-43.072 96-96 96zM544 328.864v-136.864h-64v136.864c-19.072 11.104-32 31.488-32 55.136 0 35.328 28.672 64 64 64s64-28.672 64-64c0-23.616-12.928-44.032-32-55.136z" />
<glyph unicode="&#xe91e;" glyph-name="musician" d="M154.912 223.072c-5.376 0-10.624 2.72-13.664 7.648-40.128 65.664-61.312 140.768-61.28 217.28-0.032 76.544 21.152 151.68 61.312 217.312 4.672 7.616 14.528 9.952 22.016 5.312 7.52-4.608 9.92-14.464 5.312-21.984-37.088-60.64-56.672-130.016-56.64-200.64-0.032-70.592 19.52-139.968 56.608-200.576 4.608-7.552 2.208-17.376-5.312-22.016-2.592-1.6-5.504-2.336-8.352-2.336zM869.024 223.008c-2.88 0-5.76 0.768-8.352 2.368-7.552 4.608-9.92 14.464-5.312 22.016 37.088 60.576 56.672 129.92 56.672 200.576 0.032 70.656-19.552 140.032-56.672 200.608-4.608 7.552-2.24 17.376 5.312 22.016 7.456 4.544 17.344 2.24 22.016-5.28 40.16-65.6 61.376-140.768 61.344-217.312 0.032-76.544-21.184-151.68-61.344-217.28-3.040-4.992-8.288-7.712-13.664-7.712zM233.984 268.544c-5.344 0-10.56 2.656-13.6 7.552-32.16 51.712-49.12 111.168-49.056 171.936-0.064 60.608 16.896 120.032 49.056 171.84 4.672 7.52 14.624 9.728 22.016 5.152 7.488-4.672 9.824-14.528 5.152-22.016-28.992-46.72-44.32-100.288-44.256-154.976-0.064-54.816 15.264-108.416 44.256-155.040 4.672-7.488 2.368-17.376-5.152-22.048-2.624-1.6-5.536-2.4-8.416-2.4zM790.016 268.512c-2.912 0-5.824 0.768-8.448 2.4-7.488 4.672-9.824 14.528-5.152 22.048 28.992 46.656 44.352 100.256 44.352 155.008 0 54.656-15.328 108.256-44.352 155.008-4.672 7.488-2.336 17.376 5.152 22.016 7.456 4.576 17.376 2.368 22.016-5.152 32.16-51.808 49.152-111.232 49.152-171.872 0-60.704-16.992-120.16-49.152-171.904-3.008-4.896-8.256-7.552-13.568-7.552zM313.056 314.016c-5.248 0-10.4 2.592-13.472 7.36-49.312 76.928-49.312 176.32 0 253.248 4.8 7.456 14.752 9.568 22.080 4.832 7.424-4.768 9.632-14.656 4.832-22.112-42.592-66.432-42.592-152.256 0-218.656 4.768-7.424 2.592-17.344-4.832-22.112-2.624-1.76-5.632-2.56-8.608-2.56zM710.944 313.952c-2.976 0-5.984 0.8-8.64 2.528-7.424 4.768-9.632 14.656-4.832 22.112 42.592 66.432 42.592 152.288 0 218.688-4.768 7.424-2.592 17.344 4.832 22.112 7.328 4.768 17.312 2.624 22.080-4.832 49.312-76.896 49.312-176.288 0-253.248-3.040-4.768-8.192-7.36-13.44-7.36zM511.904 563.552c63.712 0 115.52-51.808 115.52-115.52s-51.808-115.52-115.552-115.52c-63.648 0-115.456 51.808-115.456 115.52s51.808 115.52 115.488 115.52zM511.904 595.552c-81.28 0-147.488-66.272-147.488-147.52 0-81.312 66.208-147.52 147.456-147.52h0.032c0 0 0.032 0 0.064 0 81.28 0 147.456 66.208 147.456 147.52 0 81.28-66.208 147.52-147.52 147.52v0z" />
<glyph unicode="&#xe91f;" glyph-name="fan" d="M238.144 672.96c5.376 0 10.624-2.72 13.664-7.648 40.128-65.664 61.312-140.768 61.28-217.28 0.032-76.544-21.152-151.68-61.312-217.312-4.672-7.616-14.528-9.952-22.016-5.312-7.52 4.608-9.92 14.464-5.312 21.984 37.056 60.608 56.672 129.984 56.64 200.608 0.032 70.592-19.52 139.968-56.608 200.576-4.576 7.584-2.208 17.408 5.344 22.048 2.592 1.568 5.504 2.336 8.32 2.336zM785.92 672.864c2.88 0 5.76-0.768 8.352-2.368 7.552-4.608 9.92-14.464 5.312-22.016-37.088-60.576-56.672-129.92-56.672-200.576-0.032-70.656 19.552-140.032 56.672-200.608 4.608-7.552 2.24-17.376-5.312-22.016-7.456-4.544-17.344-2.24-22.016 5.28-40.16 65.6-61.376 140.768-61.344 217.312-0.032 76.544 21.184 151.68 61.344 217.28 3.040 4.992 8.288 7.712 13.664 7.712zM159.104 627.456c5.344 0 10.56-2.656 13.6-7.552 32.128-51.712 49.12-111.168 49.056-171.904 0.064-60.608-16.896-120.032-49.056-171.84-4.672-7.52-14.624-9.728-22.016-5.152-7.488 4.672-9.824 14.528-5.152 22.016 28.96 46.72 44.288 100.288 44.224 154.976 0.064 54.816-15.264 108.416-44.256 155.040-4.672 7.488-2.368 17.376 5.152 22.048 2.624 1.6 5.536 2.368 8.448 2.368zM864.928 627.36c2.912 0 5.824-0.768 8.448-2.4 7.488-4.672 9.824-14.528 5.152-22.048-28.992-46.656-44.352-100.256-44.352-155.008 0-54.656 15.328-108.256 44.352-155.008 4.672-7.488 2.336-17.376-5.152-22.016-7.456-4.576-17.376-2.368-22.016 5.152-32.16 51.808-49.152 111.232-49.152 171.872 0 60.704 16.992 120.16 49.152 171.904 3.008 4.896 8.224 7.552 13.568 7.552zM80 581.984c5.248 0 10.4-2.592 13.472-7.36 49.312-76.928 49.312-176.32 0-253.248-4.8-7.456-14.752-9.568-22.080-4.832-7.424 4.768-9.632 14.656-4.832 22.112 42.592 66.432 42.592 152.256 0 218.656-4.8 7.488-2.624 17.376 4.8 22.144 2.656 1.728 5.664 2.528 8.64 2.528zM944 581.92c2.976 0 5.984-0.8 8.64-2.528 7.424-4.768 9.632-14.656 4.832-22.112-42.592-66.432-42.592-152.288 0-218.688 4.768-7.424 2.592-17.344-4.832-22.112-7.328-4.768-17.312-2.624-22.080 4.832-49.312 76.896-49.312 176.288 0 253.248 3.040 4.768 8.192 7.36 13.44 7.36zM511.904 563.552c63.712 0 115.52-51.808 115.52-115.52s-51.808-115.52-115.552-115.52c-63.648 0-115.456 51.808-115.456 115.52s51.808 115.52 115.488 115.52zM511.904 595.552c-81.28 0-147.488-66.272-147.488-147.52 0-81.312 66.208-147.52 147.456-147.52h0.032c0 0 0.032 0 0.064 0 81.28 0 147.456 66.208 147.456 147.52 0 81.28-66.208 147.52-147.52 147.52v0z" />
<glyph unicode="&#xe920;" glyph-name="collective-ownership" d="M511.968 832c-211.584 0-383.968-172.512-383.968-384.032s172.288-383.968 383.808-383.968c0.064 0 0.096 0 0.16 0s0.128 0 0.16 0c211.552 0 383.872 172.448 383.872 383.968 0 211.584-172.448 384.032-384.032 384.032zM511.808 96c-193.984 0-351.808 157.952-351.808 351.968 0 194.112 157.92 352.032 351.968 352.032 194.080 0 352.032-157.92 352.032-352.032 0-194.016-157.888-351.968-352.192-351.968zM666.24 293.696c-41.056-41.12-95.84-63.744-154.208-63.744-58.4 0-113.184 22.688-154.304 63.744-41.088 41.088-63.712 95.872-63.744 154.272 0 58.4 22.592 113.216 63.68 154.304 41.12 41.12 95.904 63.744 154.304 63.744 54.208 0 105.248-19.744 145.184-55.456l22.624 22.624c-47.488 43.040-107.584 64.864-167.808 64.864-64.096 0-128.16-24.352-176.928-73.12-97.472-97.472-97.376-256.352 0.064-353.792 48.736-48.736 112.832-73.12 176.928-73.12 64.064 0 128.128 24.384 176.832 73.12 2.944 2.944 5.536 6.080 8.288 9.152l-22.592 22.592c-2.752-3.104-5.376-6.24-8.32-9.184z" />
<glyph unicode="&#xe921;" glyph-name="risks" d="M512 767.424c11.584 0 23.232-7.616 32-22.848l342.464-593.152c17.6-30.496 3.2-55.424-32-55.424h-684.928c-35.2 0-49.6 24.928-32 55.424l342.464 593.152c8.768 15.232 20.416 22.848 32 22.848zM512 799.424c-23.68 0-45.472-14.144-59.712-38.848l-342.464-593.152c-14.24-24.704-15.616-50.656-3.776-71.168s34.976-32.256 63.488-32.256h684.928c28.512 0 51.648 11.744 63.488 32.288 11.84 20.512 10.464 46.432-3.776 71.168l-342.464 593.12c-14.24 24.704-36.032 38.848-59.712 38.848v0zM494.4 288l-15.008 288h64l-18.496-288zM543.392 214.4c0-17.673-14.327-32-32-32s-32 14.327-32 32c0 17.673 14.327 32 32 32s32-14.327 32-32z" />
<glyph unicode="&#xe922;" glyph-name="burger" d="M176 640h672v-64h-672v64zM176 480h672v-64h-672v64zM176 320h672v-64h-672v64z" />
<glyph unicode="&#xe923;" glyph-name="close" d="M772.224 662.976l-45.248 45.248-214.976-214.976-214.976 214.976-45.248-45.28 214.976-214.944-214.976-214.976 45.28-45.248 214.944 214.976 214.976-214.976 45.248 45.28-214.976 214.944z" />
<glyph unicode="&#xe924;" glyph-name="connections" d="M746.528 502.144c14.208 0 28.224 3.776 40.576 10.912 18.784 10.816 32.256 28.352 37.856 49.312 5.632 20.96 2.752 42.848-8.096 61.632-14.464 25.056-41.44 40.64-70.4 40.64-14.176 0-28.224-3.776-40.576-10.912-34.016-19.616-48.448-60.384-36.32-96.288l-75.168-43.392c-8 10.016-17.76 18.88-29.504 25.664-11.392 6.592-23.968 10.88-36.896 12.832v86.624c37.12 7.456 65.216 40.288 65.216 79.616 0 44.768-36.448 81.216-81.216 81.216s-81.216-36.448-81.216-81.248c0-39.328 28.096-72.16 65.216-79.616v-86.656c-26.144-4.032-49.984-17.792-66.528-38.4l-75.040 43.328c12.096 35.936-2.304 76.672-36.288 96.288-12.384 7.168-26.4 10.944-40.576 10.944-28.928 0-55.936-15.552-70.4-40.576-22.368-38.848-9.024-88.64 29.728-111.008 12.352-7.136 26.368-10.88 40.576-10.88 23.488 0 45.312 10.624 60.608 27.872l75.68-43.712c-9.824-25.216-9.248-52.352 0.128-76.512l-75.84-43.776c-15.296 17.248-37.088 27.84-60.576 27.84-14.176 0-28.224-3.776-40.576-10.88-38.752-22.4-52.096-72.16-29.76-110.944 14.528-25.088 41.504-40.64 70.464-40.64 14.176 0 28.224 3.776 40.544 10.88 34.048 19.648 48.48 60.384 36.32 96.32l75.168 43.36c7.968-10.016 17.728-18.848 29.44-25.632 11.456-6.624 24.032-10.88 36.96-12.864v-86.624c-37.12-7.456-65.216-40.32-65.216-79.616-0.032-44.8 36.416-81.248 81.184-81.248s81.216 36.448 81.216 81.216c0 39.328-28.096 72.16-65.216 79.616v86.656c26.144 4.032 49.984 17.792 66.528 38.4l75.040-43.328c-12.128-35.904 2.24-76.64 36.256-96.288 12.384-7.136 26.4-10.912 40.608-10.912 28.96 0 55.968 15.552 70.432 40.64 10.848 18.784 13.728 40.672 8.096 61.632-5.632 20.992-19.072 38.528-37.888 49.344-12.288 7.104-26.304 10.88-40.512 10.88-23.488 0-45.28-10.624-60.576-27.84l-75.744 43.712c9.824 25.216 9.248 52.32-0.096 76.48l75.84 43.808c15.264-17.28 37.088-27.872 60.544-27.872zM575.936 411.072c-13.664-23.68-38.496-36.928-64.032-36.928-12.544 0-25.216 3.2-36.832 9.888-35.328 20.448-47.392 65.6-27.040 100.896 13.664 23.68 38.528 36.96 64.064 36.96 12.512 0 25.184-3.2 36.8-9.92 35.328-20.384 47.424-65.6 27.040-100.896zM746.56 361.856c8.352 0 16.768-2.112 24.544-6.624 23.552-13.568 31.584-43.712 18.016-67.264-9.12-15.776-25.696-24.64-42.72-24.64-8.352 0-16.8 2.112-24.576 6.592-23.52 13.632-31.552 43.712-18.016 67.264 9.152 15.808 25.728 24.672 42.752 24.672zM512 128c-27.2 0-49.216 22.016-49.216 49.216s22.016 49.248 49.216 49.248 49.216-22.048 49.216-49.248-22.016-49.216-49.216-49.216zM302.112 269.984c-7.744-4.48-16.192-6.592-24.544-6.592-17.024 0-33.6 8.832-42.752 24.64-13.568 23.52-5.504 53.664 18.016 67.264 7.744 4.48 16.224 6.592 24.576 6.592 17.024 0 33.568-8.832 42.72-24.64 13.6-23.552 5.568-53.696-18.016-67.264zM277.44 534.144c-8.352 0-16.8 2.112-24.576 6.592-23.52 13.6-31.584 43.712-18.016 67.264 9.12 15.776 25.696 24.608 42.72 24.608 8.352 0 16.8-2.112 24.576-6.592 23.52-13.6 31.584-43.712 18.016-67.264-9.12-15.776-25.696-24.608-42.72-24.608zM512 768c27.2 0 49.216-22.048 49.216-49.248s-22.016-49.216-49.216-49.216-49.216 22.048-49.216 49.248 22.016 49.216 49.216 49.216zM721.888 626.016c7.744 4.48 16.224 6.624 24.576 6.624 17.024 0 33.568-8.832 42.688-24.64 13.6-23.552 5.536-53.664-18.016-67.264-7.744-4.48-16.224-6.624-24.576-6.624-16.992 0-33.568 8.832-42.688 24.64-13.6 23.552-5.568 53.664 18.016 67.264z" />
<glyph unicode="&#xe925;" glyph-name="cost_effective" d="M304 160c-61.76 0-112 50.24-112 112v352c0 61.76 42.816 112 95.456 112h96.544v32h-96.544c-70.272 0-127.456-64.608-127.456-144v-352c0-79.392 64.608-144 144-144h112v32h-112zM416 160v-96l128 80-128 80zM720 768h-112v-32h112c61.76 0 112-50.24 112-112v-352c0-61.76-42.816-112-95.456-112h-96.544v-32h96.544c70.272 0 127.456 64.608 127.456 144v352c0 79.392-64.608 144-144 144zM608 832l-128-80 128-80v96z" />
<glyph unicode="&#xe926;" glyph-name="label" d="M800.064 733.216c-0.992 0-2.016-0.032-3.072-0.064l-232.384-10.976c-35.168-1.664-85.632-21.952-112.16-45.088l-241.184-210.368c-26.528-23.136-29.28-63.776-6.144-90.304l210.336-241.152c12.608-14.464 30.4-21.856 48.288-21.856 14.944 0 29.952 5.152 42.016 15.68l241.184 210.336c26.496 23.136 53.472 70.368 59.872 104.992l42.432 228.768c6.24 33.632-15.744 60.032-49.184 60.032zM817.792 679.072l-42.432-228.8c-5.12-27.68-28.224-68.192-49.44-86.688l-241.184-210.336c-5.792-5.024-13.216-7.808-20.96-7.808-9.312 0-18.112 3.968-24.16 10.88l-210.368 241.12c-5.568 6.4-8.32 14.656-7.744 23.232 0.608 8.576 4.448 16.352 10.816 21.952l241.184 210.336c21.216 18.528 64.544 35.936 92.64 37.248l233.952 11.008c4.576 0 10.848-0.992 14.752-5.696 3.168-3.84 4.224-9.664 2.944-16.448zM617.472 629.92c-16.128-14.016-25.824-33.504-27.264-54.848-1.472-21.312 5.472-41.952 19.52-58.016 15.2-17.408 37.184-27.392 60.32-27.392 19.328 0 37.984 7.008 52.544 19.712 16.128 14.048 25.824 33.536 27.264 54.848 1.472 21.312-5.472 41.952-19.52 58.016-27.872 31.904-80.832 35.584-112.864 7.68zM701.568 533.44c-8.704-7.616-19.904-11.84-31.488-11.84-13.888 0-27.104 5.984-36.192 16.448-8.448 9.664-12.608 22.016-11.744 34.816s6.688 24.48 16.384 32.896c8.704 7.648 19.936 11.84 31.488 11.84 13.92 0 27.104-6.016 36.192-16.448 8.448-9.664 12.608-22.016 11.744-34.816-0.896-12.768-6.688-24.448-16.384-32.896z" />
<glyph unicode="&#xe927;" glyph-name="build" d="M672 320h192v-128h-192v128zM416 320h192v-128h-192v128zM544 512h192v-128h-192v128zM416 704h192v-128h-192v128zM160 320h192v-128h-192v128zM288 512h192v-128h-192v128z" />
<glyph unicode="&#xe928;" glyph-name="develop" d="M342.976 685.6l-237.6-237.6 237.6-237.6 22.624 22.624-214.976 214.976 214.976 214.976zM660.704 662.976l214.976-214.976-215.008-214.976 22.656-22.624 237.6 237.6-237.6 237.6zM463.627 188.124l-31.050 7.747 127.767 512.070 31.050-7.747-127.767-512.070z" />
<glyph unicode="&#xe929;" glyph-name="timeline" d="M800 768h-544c-35.2 0-64-28.8-64-64v-512c0-35.2 28.8-64 64-64h544c35.2 0 64 28.8 64 64v512c0 35.2-28.8 64-64 64zM448 640v-96h-96v96h96zM480 544v96h96v-96h-96zM576 512v-96h-96v96h96zM448 512v-96h-96v96h96zM448 384v-96h-96v96h96zM480 384h96v-96h-96v96zM608 384h96v-96h-96v96zM608 416v96h96v-96h-96zM608 544v96h96v-96h-96zM224 640h96v-96h-96v96zM224 512h96v-96h-96v96zM224 384h96v-96h-96v96zM256 160c-17.664 0-32 14.368-32 32v64h96v-96h-64zM352 160v96h96v-96h-96zM480 160v96h96v-96h-96zM608 160v96h96v-96h-96zM832 192c0-17.632-14.336-32-32-32h-64v96h96v-64zM832 288h-96v96h96v-96zM832 416h-96v96h96v-96zM832 544h-96v96h96v-96z" />
<glyph unicode="&#xe92a;" glyph-name="numbers" d="M736.128 800h-448.256c-35.2 0-64-28.8-64-64v-608c0-35.2 28.8-64 64-64h448.256c35.2 0 64 28.8 64 64v608c0 35.2-28.8 64-64 64zM768.128 128c0-17.632-14.336-32-32-32h-448.256c-17.664 0-32 14.368-32 32v608c0 17.632 14.336 32 32 32h448.256c17.664 0 32-14.368 32-32v-608zM735.872 736h-447.744v-128h447.744v128zM703.872 640h-383.744v64h383.744v-64zM288.128 448h128v128h-128v-128zM320.128 544h64v-64h-64v64zM448.128 448h128v128h-128v-128zM480.128 544h64v-64h-64v64zM288.128 288h128v128h-128v-128zM320.128 384h64v-64h-64v64zM448.128 288h128v128h-128v-128zM480.128 384h64v-64h-64v64zM288.128 128h128v128h-128v-128zM320.128 224h64v-64h-64v64zM448.128 128h128v128h-128v-128zM480.128 224h64v-64h-64v64zM608.128 448h128v128h-128v-128zM640.128 544h64v-64h-64v64zM608.128 128h128v288h-128v-288zM640.128 384h64v-224h-64v224z" />
<glyph unicode="&#xe92b;" glyph-name="revenue" d="M768 768h-512c-35.2 0-64-28.8-64-64v-512c0-35.2 28.8-64 64-64h512c35.2 0 64 28.8 64 64v512c0 35.2-28.8 64-64 64zM800 192c0-17.632-14.336-32-32-32h-512c-17.664 0-32 14.368-32 32v512c0 17.632 14.336 32 32 32h512c17.664 0 32-14.368 32-32v-512zM374.4 556.8l19.2-25.6 118.4 88.8 118.4-88.8 19.2 25.6-137.6 103.2zM374.4 460.8l19.2-25.6 118.4 88.8 118.4-88.8 19.2 25.6-137.6 103.2zM374.4 364.8l19.2-25.6 118.4 88.8 118.4-88.8 19.2 25.6-137.6 103.2zM374.4 268.8l19.2-25.6 118.4 88.8 118.4-88.8 19.2 25.6-137.6 103.2z" />
<glyph unicode="&#xe92c;" glyph-name="costs" d="M768 768h-512c-35.2 0-64-28.8-64-64v-512c0-35.2 28.8-64 64-64h512c35.2 0 64 28.8 64 64v512c0 35.2-28.8 64-64 64zM800 192c0-17.632-14.336-32-32-32h-512c-17.664 0-32 14.368-32 32v512c0 17.632 14.336 32 32 32h512c17.664 0 32-14.368 32-32v-512zM544 672h64v-448h-64v448zM672 576h64v-352h-64v352zM416 576h64v-352h-64v352zM288 384h64v-160h-64v160z" />
<glyph unicode="&#xe92d;" glyph-name="action" d="M333.28 448c0-48.124-39.012-87.136-87.136-87.136s-87.136 39.012-87.136 87.136c0 48.124 39.012 87.136 87.136 87.136s87.136-39.012 87.136-87.136zM599.168 448c0-48.142-39.026-87.168-87.168-87.168s-87.168 39.026-87.168 87.168c0 48.142 39.026 87.168 87.168 87.168s87.168-39.026 87.168-87.168zM863.008 448c0-48.124-39.012-87.136-87.136-87.136s-87.136 39.012-87.136 87.136c0 48.124 39.012 87.136 87.136 87.136s87.136-39.012 87.136-87.136z" />
<glyph unicode="&#xe92e;" glyph-name="vote" d="M768 672h-512c-35.2 0-64-28.8-64-64v-320c0-35.2 28.8-64 64-64h63.008v-96l96 96h352.992c35.2 0 64 28.8 64 64v320c0 35.2-28.8 64-64 64zM800 288c0-17.664-14.368-32-32-32h-365.984l-51.008-51.008v51.008h-95.008c-17.632 0-32 14.336-32 32v320c0 17.664 14.368 32 32 32h512c17.632 0 32-14.336 32-32v-320z" />
</font>
</defs>
</svg>
